<svg width="59" height="58" viewBox="0 0 59 58" fill="none" xmlns="http://www.w3.org/2000/svg">
<g clip-path="url(#clip0)">
<path d="M29.75 0C13.7547 0 0.75 13.0047 0.75 29C0.75 44.9953 13.7547 58 29.75 58C45.7453 58 58.75 44.9953 58.75 29C58.75 13.0047 45.7453 0 29.75 0ZM29.75 53.1629C16.4281 53.1629 5.58711 42.3219 5.58711 29C5.58711 23.2 7.6375 17.8871 11.0473 13.7184L21.809 24.4801C19.9512 26.9609 18.977 29.725 18.9316 32.2512L11.2059 35.1172C10.8207 35.2645 10.5375 35.593 10.4469 35.9895C10.3562 36.3859 10.4809 36.8164 10.7754 37.0996C11.8742 38.1984 12.1008 39.0254 12.3727 40.0789C12.6785 41.257 13.0297 42.5824 14.593 44.1457C16.1562 45.709 17.493 46.0602 18.6598 46.366C19.7133 46.6379 20.5402 46.8645 21.6391 47.9633C21.8656 48.1898 22.1715 48.3145 22.4887 48.3145C22.568 48.3145 22.6586 48.3031 22.7379 48.2918C23.1344 48.2012 23.4629 47.918 23.6102 47.5441L26.5441 39.8297C29.0477 39.773 31.7891 38.7648 34.2473 36.9297L45.0203 47.7027C40.8629 51.1125 35.55 53.1629 29.75 53.1629ZM48.4527 44.2816L37.691 33.5199C39.5375 31.0617 40.4891 28.3316 40.557 25.8395L48.3055 22.8715C48.6906 22.7242 48.9738 22.3957 49.0531 21.9992C49.1437 21.6027 49.0191 21.1836 48.7246 20.8891C47.6258 19.7902 47.3992 18.9633 47.1273 17.9098C46.8215 16.7316 46.4703 15.4062 44.907 13.843C43.3438 12.2797 42.007 11.9285 40.8402 11.6227C39.7867 11.3508 38.9598 11.1242 37.8609 10.0254C37.5664 9.73086 37.1586 9.60625 36.7508 9.69687C36.3543 9.7875 36.0258 10.0707 35.8785 10.4445L32.9219 18.193C30.4297 18.2609 27.6883 19.2125 25.2301 21.059L14.4684 10.2973C18.6371 6.8875 23.9613 4.83711 29.75 4.83711C43.0719 4.83711 53.9129 15.6781 53.9129 29C53.9129 34.8 51.8625 40.1129 48.4527 44.2816Z" fill="white"/>
</g>
<defs>
<clipPath id="clip0">
<rect width="58" height="58" fill="white" transform="translate(0.75)"/>
</clipPath>
</defs>
</svg>
