<svg width="59" height="58" viewBox="0 0 59 58" fill="none" xmlns="http://www.w3.org/2000/svg">
<g clip-path="url(#clip0)">
<path d="M29.25 0C13.2547 0 0.25 13.0047 0.25 29C0.25 44.9953 13.2547 58 29.25 58C45.2453 58 58.25 44.9953 58.25 29C58.25 13.0047 45.2453 0 29.25 0ZM29.25 53.1629C15.9281 53.1629 5.08711 42.3219 5.08711 29C5.08711 23.2 7.1375 17.8871 10.5473 13.7184L17.8539 21.025C17.4234 21.8633 17.1742 22.8035 17.1742 23.8004V45.9242C17.1742 48.5863 19.3379 50.7613 22.0113 50.7613H36.5113C39.1734 50.7613 41.3484 48.5977 41.3484 45.9242V44.5082L44.5543 47.7141C40.3629 51.1125 35.05 53.1629 29.25 53.1629ZM25.625 14.8738V14.5H32.875V14.8738C32.875 17.3434 34.359 19.541 36.6586 20.4586C38.0293 21.0023 38.9242 22.3164 38.9242 23.8004V26.5758C34.4383 26.4965 32.0254 25.9754 29.5219 25.409C29.3406 25.3637 29.148 25.3297 28.9555 25.2844L23.3027 19.6316C24.7414 18.5102 25.625 16.777 25.625 14.8738ZM19.5871 24.1855V23.8004C19.5871 23.4832 19.6437 23.1887 19.723 22.8941L21.0598 24.2309C20.5953 24.2082 20.0969 24.1969 19.5871 24.1855ZM47.9527 44.2816L41.3371 37.666V23.8004C41.3371 21.3309 39.8531 19.1332 37.5535 18.2156C36.1828 17.6719 35.2879 16.3578 35.2879 14.8738V14.5C35.9562 14.5 36.5 13.9563 36.5 13.2879V8.46211C36.5 7.79375 35.9562 7.25 35.2879 7.25H23.2121C22.5437 7.25 22 7.79375 22 8.46211V13.2992C22 13.9676 22.5437 14.5113 23.2121 14.5113V14.8852C23.2121 16.1312 22.5551 17.2301 21.5355 17.8758L13.9684 10.3086C18.1371 6.89883 23.4613 4.84844 29.25 4.84844C42.5719 4.84844 53.4129 15.6895 53.4129 29.0113C53.4129 34.8 51.3625 40.1129 47.9527 44.2816Z" fill="white"/>
</g>
<defs>
<clipPath id="clip0">
<rect width="58" height="58" fill="white" transform="translate(0.25)"/>
</clipPath>
</defs>
</svg>
