<svg width="59" height="58" viewBox="0 0 59 58" fill="none" xmlns="http://www.w3.org/2000/svg">
<g clip-path="url(#clip0)">
<path d="M29.75 0C13.7547 0 0.75 13.0047 0.75 29C0.75 44.9953 13.7547 58 29.75 58C45.7453 58 58.75 44.9953 58.75 29C58.75 13.0047 45.7453 0 29.75 0ZM29.75 53.1629C16.4281 53.1629 5.58711 42.3219 5.58711 29C5.58711 23.2 7.6375 17.8871 11.0473 13.7184L20.0871 22.7582V40.8039C20.0871 46.298 24.4258 50.7613 29.75 50.7613C34.6891 50.7613 38.7332 46.9098 39.2996 41.982L45.0316 47.7141C40.8629 51.1125 35.55 53.1629 29.75 53.1629ZM36.3316 38.9914C34.5191 39.4785 31.9137 40.7133 30.9055 43.8625C30.7469 44.3609 30.2824 44.7008 29.7613 44.7008C29.2402 44.7008 28.7758 44.3609 28.6172 43.8625C27.473 40.3168 24.2785 39.1953 22.5113 38.8328V36.3746C24.2898 36.6691 27.6883 37.6094 29.7613 40.7133C31.0414 38.7875 32.8312 37.7 34.4285 37.077L36.3316 38.9914ZM37 27.9578C36.0711 28.1391 34.7684 28.5469 33.5563 29.3965L31.823 27.6633C33.6582 26.2699 35.7313 25.7148 36.9887 25.5109V27.9578H37ZM30.6562 33.3273C30.4297 33.6105 30.1238 33.8371 29.75 33.8371C29.2289 33.8371 28.7645 33.4973 28.6059 32.9988C27.4617 29.4531 24.2672 28.3316 22.5 27.9691V25.5109C22.6246 25.5336 22.7832 25.5676 22.9191 25.5902L30.6562 33.3273ZM48.4527 44.2816L39.4129 35.2418V10.875C39.4129 10.2066 38.8691 9.66289 38.2008 9.66289C37.5324 9.66289 36.9887 10.2066 36.9887 10.875V17.0488C35.5273 17.2867 32.9672 17.9777 30.9508 19.9488V8.46211C30.9508 7.79375 30.407 7.25 29.7387 7.25C29.0703 7.25 28.5266 7.79375 28.5266 8.46211V19.9488C26.5102 17.9777 23.95 17.298 22.4887 17.0488V10.875C22.4887 10.2066 21.9449 9.66289 21.2766 9.66289C20.6082 9.66289 20.0645 10.2066 20.0645 10.875V15.916L14.4457 10.2973C18.6145 6.8875 23.9387 4.83711 29.7273 4.83711C43.0492 4.83711 53.8902 15.6781 53.8902 29C53.9129 34.8 51.8625 40.1129 48.4527 44.2816Z" fill="white"/>
</g>
<defs>
<clipPath id="clip0">
<rect width="58" height="58" fill="white" transform="translate(0.75)"/>
</clipPath>
</defs>
</svg>
