<svg width="65" height="45" viewBox="0 0 65 45" fill="none" xmlns="http://www.w3.org/2000/svg">
<path d="M37.3438 7.98438C37.6719 7.26562 37.875 6.46875 37.875 5.625C37.875 2.51562 35.3594 0 32.25 0C29.1563 0 26.625 2.51562 26.625 5.625C26.625 6.46875 26.8281 7.26562 27.1562 7.98438C14.6719 10.2812 5.07812 20.8281 4.21875 33.75H60.2813C59.4219 20.8281 49.8281 10.2812 37.3438 7.98438ZM32.25 7.5C31.2188 7.5 30.375 6.65625 30.375 5.625C30.375 4.59375 31.2188 3.75 32.25 3.75C33.2813 3.75 34.125 4.59375 34.125 5.625C34.125 6.65625 33.2813 7.5 32.25 7.5Z" fill="white"/>
<path d="M0.25 37.5C1.125 41.7812 5.21875 45 9.75 45H54.75C59.2812 45 63.375 41.7812 64.25 37.5H0.25Z" fill="white"/>
</svg>
