<svg xmlns="http://www.w3.org/2000/svg" width="270" height="194" viewBox="0 0 270 194">
  <g id="block5" transform="translate(-355 -808)">
    <g id="_5" data-name="5" transform="translate(355 850)">
      <path id="Контур_10" data-name="Контур 10" d="M0,50A50,50,0,0,1,50,0H270V102a50,50,0,0,1-50,50H0Z" fill="#ceebfb"/>
      <path id="Контур_11" data-name="Контур 11" d="M41.25,44.706a2.916,2.916,0,0,1-.324,1.386,3.1,3.1,0,0,1-.846,1.044,3.934,3.934,0,0,1-1.242.648,5.3,5.3,0,0,1-1.53.216h-6.1V35.22h6.588A2.522,2.522,0,0,1,39,35.508a2.953,2.953,0,0,1,.918.756,3.157,3.157,0,0,1,.576,1.044,3.308,3.308,0,0,1,.216,1.17,3.429,3.429,0,0,1-.486,1.764,2.876,2.876,0,0,1-1.35,1.206A3.184,3.184,0,0,1,40.6,42.636,3.3,3.3,0,0,1,41.25,44.706Zm-2.07-.378a2.017,2.017,0,0,0-.144-.756,1.919,1.919,0,0,0-.36-.63,1.594,1.594,0,0,0-.54-.432,1.548,1.548,0,0,0-.7-.162H33.222v3.906h4.086a1.882,1.882,0,0,0,.738-.144,2.107,2.107,0,0,0,.594-.414,2.063,2.063,0,0,0,.4-.612A2.017,2.017,0,0,0,39.18,44.328Zm-5.958-7.362v3.762H36.93a1.587,1.587,0,0,0,.684-.144,1.832,1.832,0,0,0,.558-.378,1.622,1.622,0,0,0,.378-.594,2.137,2.137,0,0,0-.324-2.106,1.5,1.5,0,0,0-1.188-.54ZM46.069,48.18a3.711,3.711,0,0,1-1.278-.216,3.332,3.332,0,0,1-1.008-.63,3.089,3.089,0,0,1-.666-.936,2.911,2.911,0,0,1-.234-1.17,2.522,2.522,0,0,1,.288-1.206,2.858,2.858,0,0,1,.81-.936,4.1,4.1,0,0,1,1.26-.612,5.751,5.751,0,0,1,1.62-.216,6.868,6.868,0,0,1,1.314.126,6.152,6.152,0,0,1,1.17.306v-.648a2.152,2.152,0,0,0-.594-1.62,2.315,2.315,0,0,0-1.71-.594,4.08,4.08,0,0,0-1.494.288,7.251,7.251,0,0,0-1.494.792l-.612-1.26a6.675,6.675,0,0,1,3.78-1.224,4.311,4.311,0,0,1,3.024.99,3.664,3.664,0,0,1,1.08,2.844v3.4q0,.63.522.648V48a5.065,5.065,0,0,1-.5.072q-.2.018-.4.018a1.308,1.308,0,0,1-.9-.288,1.253,1.253,0,0,1-.378-.738l-.054-.594a4.261,4.261,0,0,1-1.566,1.278A4.591,4.591,0,0,1,46.069,48.18Zm.54-1.458a3.6,3.6,0,0,0,1.35-.252,2.4,2.4,0,0,0,1.008-.738.913.913,0,0,0,.378-.684V43.806a5.942,5.942,0,0,0-1.08-.306,5.769,5.769,0,0,0-1.1-.108,3.027,3.027,0,0,0-1.746.468,1.389,1.389,0,0,0-.666,1.206,1.561,1.561,0,0,0,.522,1.188A1.92,1.92,0,0,0,46.609,46.722Zm12.356-2.628,3.006-5.508h2V48H62.061V41.826l-2.574,4.7H58.461l-2.592-4.7V48H53.961V38.586h2.016Zm11.618-.81a5.132,5.132,0,0,1,.342-1.872,4.7,4.7,0,0,1,.972-1.548,4.638,4.638,0,0,1,1.548-1.044,4.954,4.954,0,0,1,2.016-.4,4.65,4.65,0,0,1,2.5.648,3.981,3.981,0,0,1,1.584,1.692l-1.926.612a2.409,2.409,0,0,0-.918-.918,2.456,2.456,0,0,0-1.278-.342,2.7,2.7,0,0,0-1.116.234,2.64,2.64,0,0,0-.882.666,3.025,3.025,0,0,0-.594.99,3.615,3.615,0,0,0-.216,1.278,3.711,3.711,0,0,0,.216,1.278,3.538,3.538,0,0,0,.612,1.008,3.088,3.088,0,0,0,.9.684,2.655,2.655,0,0,0,1.1.234,2.959,2.959,0,0,0,.72-.09,2.656,2.656,0,0,0,.648-.288,2.27,2.27,0,0,0,.522-.414,1.5,1.5,0,0,0,.342-.5l1.944.576a3.9,3.9,0,0,1-1.566,1.746,5.047,5.047,0,0,1-6.138-.792,4.932,4.932,0,0,1-1.332-3.438Zm15,4.716H83.644V40.3h-3.06v-1.71h8.064V40.3h-3.06Zm7.1.18a3.711,3.711,0,0,1-1.278-.216,3.332,3.332,0,0,1-1.008-.63,3.089,3.089,0,0,1-.666-.936,2.911,2.911,0,0,1-.234-1.17,2.522,2.522,0,0,1,.288-1.206,2.858,2.858,0,0,1,.81-.936,4.1,4.1,0,0,1,1.26-.612,5.751,5.751,0,0,1,1.62-.216,6.868,6.868,0,0,1,1.314.126,6.152,6.152,0,0,1,1.17.306v-.648a2.152,2.152,0,0,0-.594-1.62,2.315,2.315,0,0,0-1.71-.594,4.079,4.079,0,0,0-1.494.288,7.252,7.252,0,0,0-1.494.792l-.612-1.26a6.675,6.675,0,0,1,3.78-1.224,4.311,4.311,0,0,1,3.024.99,3.664,3.664,0,0,1,1.08,2.844v3.4q0,.63.522.648V48a5.065,5.065,0,0,1-.5.072q-.2.018-.4.018a1.308,1.308,0,0,1-.9-.288,1.253,1.253,0,0,1-.378-.738l-.054-.594a4.261,4.261,0,0,1-1.566,1.278A4.591,4.591,0,0,1,92.69,48.18Zm.54-1.458a3.6,3.6,0,0,0,1.35-.252,2.4,2.4,0,0,0,1.008-.738.913.913,0,0,0,.378-.684V43.806a5.942,5.942,0,0,0-1.08-.306,5.769,5.769,0,0,0-1.1-.108,3.027,3.027,0,0,0-1.746.468,1.389,1.389,0,0,0-.666,1.206,1.561,1.561,0,0,0,.522,1.188A1.92,1.92,0,0,0,93.23,46.722Zm9.3-4.392h4.284V38.586h1.944V48H106.81V44h-4.284v4h-1.944V38.586h1.944Zm13.047,5.85a4.954,4.954,0,0,1-2.016-.4,4.651,4.651,0,0,1-2.484-2.61,5.226,5.226,0,0,1-.342-1.872,5.083,5.083,0,0,1,.342-1.854,4.66,4.66,0,0,1,.972-1.566,4.776,4.776,0,0,1,3.528-1.458,4.782,4.782,0,0,1,1.98.4,4.661,4.661,0,0,1,1.53,1.062,4.521,4.521,0,0,1,.99,1.566,5.083,5.083,0,0,1,.342,1.854,5.226,5.226,0,0,1-.342,1.872,4.559,4.559,0,0,1-.99,1.548,4.661,4.661,0,0,1-1.53,1.062A4.782,4.782,0,0,1,115.573,48.18Zm-2.808-4.86a3.561,3.561,0,0,0,.216,1.26,3.244,3.244,0,0,0,.594,1.008,3,3,0,0,0,.882.666,2.7,2.7,0,0,0,1.116.234,2.575,2.575,0,0,0,1.1-.234,2.8,2.8,0,0,0,.9-.684,3.244,3.244,0,0,0,.594-1.008,3.562,3.562,0,0,0,.216-1.26,3.509,3.509,0,0,0-.216-1.242,3.2,3.2,0,0,0-.594-1.026,2.591,2.591,0,0,0-.9-.666,2.421,2.421,0,0,0-1.1-.252,2.5,2.5,0,0,0-1.1.252,2.866,2.866,0,0,0-.882.684,3.376,3.376,0,0,0-.828,2.268Zm14.788-4.734a2.409,2.409,0,0,1,.936.18,2.091,2.091,0,0,1,.756.5,2.125,2.125,0,0,1,.5.738,2.363,2.363,0,0,1,.18.918,2.827,2.827,0,0,1-.306,1.242,1.937,1.937,0,0,1-1.044.918,2.34,2.34,0,0,1,1.26.828,2.6,2.6,0,0,1-.4,3.42,3.645,3.645,0,0,1-2.286.666h-4.734V38.586Zm-.864,3.978a1.306,1.306,0,0,0,.936-.324,1.277,1.277,0,0,0,.36-.972,1.367,1.367,0,0,0-.288-.882,1.106,1.106,0,0,0-.918-.36h-2.412v2.538Zm.288,4a1.271,1.271,0,0,0,.99-.4,1.4,1.4,0,0,0,.378-.972,1.368,1.368,0,0,0-.36-.954,1.215,1.215,0,0,0-.972-.4h-2.646V46.56Zm7.272-1.368,4.824-6.606h1.512V48h-1.944V41.538L133.907,48h-1.6V38.586h1.944ZM147.347,48H145.4V40.3h-3.06v-1.71h8.064V40.3h-3.06Zm3.707-4.716a5.132,5.132,0,0,1,.342-1.872,4.7,4.7,0,0,1,.972-1.548,4.638,4.638,0,0,1,1.548-1.044,4.954,4.954,0,0,1,2.016-.4,4.65,4.65,0,0,1,2.5.648,3.982,3.982,0,0,1,1.584,1.692l-1.926.612a2.409,2.409,0,0,0-.918-.918,2.456,2.456,0,0,0-1.278-.342,2.7,2.7,0,0,0-1.116.234,2.64,2.64,0,0,0-.882.666,3.025,3.025,0,0,0-.594.99,3.615,3.615,0,0,0-.216,1.278,3.711,3.711,0,0,0,.216,1.278,3.538,3.538,0,0,0,.612,1.008,3.088,3.088,0,0,0,.9.684,2.655,2.655,0,0,0,1.1.234,2.959,2.959,0,0,0,.72-.09,2.656,2.656,0,0,0,.648-.288,2.27,2.27,0,0,0,.522-.414,1.5,1.5,0,0,0,.342-.5l1.944.576a3.9,3.9,0,0,1-1.566,1.746,5.047,5.047,0,0,1-6.138-.792,4.932,4.932,0,0,1-1.332-3.438Zm12.413,1.1a2.892,2.892,0,0,1-1.314-.972,2.818,2.818,0,0,1-.5-1.746,3.029,3.029,0,0,1,.252-1.26,2.847,2.847,0,0,1,.684-.972,2.89,2.89,0,0,1,1.026-.63,3.648,3.648,0,0,1,1.314-.234h3.888V48h-1.962V44.706h-1.53L163.3,48h-2.178Zm3.384-1.278v-2.9H165.1a1.574,1.574,0,0,0-1.008.378,1.329,1.329,0,0,0-.468,1.1,1.365,1.365,0,0,0,.414,1.062,1.527,1.527,0,0,0,1.008.36Zm8.094,3.24a2.154,2.154,0,0,0,.9-.234,1.666,1.666,0,0,0,.612-.756,6.028,6.028,0,0,0,.414-1.494q.18-.954.342-2.5l.306-2.772h6.21V48h-1.962V40.206h-2.484l-.234,1.728a30.285,30.285,0,0,1-.54,2.988,6.267,6.267,0,0,1-.738,1.872,2.457,2.457,0,0,1-1.08.972,4.108,4.108,0,0,1-1.548.324Zm11.493,3.582a1.95,1.95,0,0,0,.594.324,1.922,1.922,0,0,0,.576.09,1.014,1.014,0,0,0,.828-.522,5.6,5.6,0,0,0,.72-1.818l-3.87-9.414h2.034l2.916,7.668,2.592-7.668H194.7L190.794,49.26a5.217,5.217,0,0,1-1.3,2.178,2.512,2.512,0,0,1-1.71.612,2.839,2.839,0,0,1-.756-.09,1.522,1.522,0,0,1-.594-.324ZM202.87,48h-1.944V44.436a5.146,5.146,0,0,1-.846.216,10.325,10.325,0,0,1-1.206.054,3.292,3.292,0,0,1-1.4-.27,2.748,2.748,0,0,1-.954-.72,3.083,3.083,0,0,1-.54-1.044,4.7,4.7,0,0,1-.162-1.242V38.586h1.926v2.5a2.236,2.236,0,0,0,.414,1.548,1.605,1.605,0,0,0,1.188.432,3.586,3.586,0,0,0,.99-.108,1.614,1.614,0,0,0,.594-.288V38.586h1.944Zm2.629,0V38.586h1.944v7.7h2.844v-7.7h1.962v7.7h2.844v-7.7h1.944V48Zm18.4.18a5.111,5.111,0,0,1-2-.378,4.87,4.87,0,0,1-1.548-1.062,4.952,4.952,0,0,1-.99-1.548,5.294,5.294,0,0,1,0-3.744,4.9,4.9,0,0,1,.99-1.566A4.511,4.511,0,0,1,221.9,38.82a4.954,4.954,0,0,1,2.016-.4,4.782,4.782,0,0,1,1.98.4,4.661,4.661,0,0,1,1.53,1.062,4.286,4.286,0,0,1,.954,1.53,4.895,4.895,0,0,1,.342,1.818q0,.216-.018.414-.018.18-.036.306h-7.542a3.051,3.051,0,0,0,.918,2.016,2.967,2.967,0,0,0,.882.558,2.831,2.831,0,0,0,1.044.2,3.33,3.33,0,0,0,.774-.09,3.222,3.222,0,0,0,.72-.288,2.732,2.732,0,0,0,.576-.468,2.141,2.141,0,0,0,.4-.594l1.692.486a3.961,3.961,0,0,1-1.62,1.746A5,5,0,0,1,223.9,48.18Zm2.862-5.6a3.049,3.049,0,0,0-.306-1.1,2.6,2.6,0,0,0-.612-.846,2.692,2.692,0,0,0-.882-.558,2.947,2.947,0,0,0-2.124,0,2.741,2.741,0,0,0-.864.558,2.6,2.6,0,0,0-.612.846,3.3,3.3,0,0,0-.288,1.1Zm-193.6,25.61,4.824-6.606H39.5V71H37.56V64.538L32.826,71h-1.6V61.586h1.944Zm18.77-6.606a2.409,2.409,0,0,1,.936.18,2.091,2.091,0,0,1,.756.5,2.125,2.125,0,0,1,.5.738,2.363,2.363,0,0,1,.18.918,2.827,2.827,0,0,1-.306,1.242,1.937,1.937,0,0,1-1.044.918,2.34,2.34,0,0,1,1.26.828,2.6,2.6,0,0,1-.4,3.42A3.645,3.645,0,0,1,51.542,71H46.807V61.586Zm-.864,3.978a1.306,1.306,0,0,0,.936-.324,1.277,1.277,0,0,0,.36-.972,1.367,1.367,0,0,0-.288-.882,1.106,1.106,0,0,0-.918-.36H48.751v2.538Zm.288,4a1.271,1.271,0,0,0,.99-.4,1.4,1.4,0,0,0,.378-.972,1.368,1.368,0,0,0-.36-.954,1.215,1.215,0,0,0-.972-.4H48.751V69.56Zm9.558,1.62a5.111,5.111,0,0,1-2-.378,4.87,4.87,0,0,1-1.548-1.062,4.952,4.952,0,0,1-.99-1.548,5.294,5.294,0,0,1,0-3.744,4.9,4.9,0,0,1,.99-1.566,4.511,4.511,0,0,1,1.548-1.062,4.954,4.954,0,0,1,2.016-.4,4.782,4.782,0,0,1,1.98.4,4.661,4.661,0,0,1,1.53,1.062,4.287,4.287,0,0,1,.954,1.53,4.895,4.895,0,0,1,.342,1.818q0,.216-.018.414-.018.18-.036.306H58.148a3.051,3.051,0,0,0,.918,2.016,2.967,2.967,0,0,0,.882.558,2.831,2.831,0,0,0,1.044.2,3.33,3.33,0,0,0,.774-.09,3.223,3.223,0,0,0,.72-.288,2.732,2.732,0,0,0,.576-.468,2.141,2.141,0,0,0,.4-.594l1.692.486a3.961,3.961,0,0,1-1.62,1.746A5,5,0,0,1,60.92,71.18Zm2.862-5.6a3.049,3.049,0,0,0-.306-1.1,2.6,2.6,0,0,0-.612-.846,2.692,2.692,0,0,0-.882-.558,2.947,2.947,0,0,0-2.124,0,2.741,2.741,0,0,0-.864.558,2.6,2.6,0,0,0-.612.846,3.3,3.3,0,0,0-.288,1.1Zm3.145.7a5.132,5.132,0,0,1,.342-1.872,4.7,4.7,0,0,1,.972-1.548,4.638,4.638,0,0,1,1.548-1.044,4.954,4.954,0,0,1,2.016-.4,4.65,4.65,0,0,1,2.5.648,3.981,3.981,0,0,1,1.584,1.692l-1.926.612a2.409,2.409,0,0,0-.918-.918,2.456,2.456,0,0,0-1.278-.342,2.7,2.7,0,0,0-1.116.234,2.64,2.64,0,0,0-.882.666,3.025,3.025,0,0,0-.594.99,3.615,3.615,0,0,0-.216,1.278,3.711,3.711,0,0,0,.216,1.278,3.538,3.538,0,0,0,.612,1.008,3.088,3.088,0,0,0,.9.684,2.654,2.654,0,0,0,1.1.234,2.959,2.959,0,0,0,.72-.09,2.656,2.656,0,0,0,.648-.288,2.27,2.27,0,0,0,.522-.414,1.5,1.5,0,0,0,.342-.5l1.944.576A3.9,3.9,0,0,1,74.4,70.514a5.047,5.047,0,0,1-6.138-.792,4.932,4.932,0,0,1-1.332-3.438Zm15.007,4.9a5.111,5.111,0,0,1-2-.378,4.87,4.87,0,0,1-1.548-1.062,4.952,4.952,0,0,1-.99-1.548,5.294,5.294,0,0,1,0-3.744,4.9,4.9,0,0,1,.99-1.566,4.511,4.511,0,0,1,1.548-1.062,4.954,4.954,0,0,1,2.016-.4,4.782,4.782,0,0,1,1.98.4,4.661,4.661,0,0,1,1.53,1.062,4.286,4.286,0,0,1,.954,1.53,4.895,4.895,0,0,1,.342,1.818q0,.216-.018.414-.018.18-.036.306H79.162a3.051,3.051,0,0,0,.918,2.016,2.967,2.967,0,0,0,.882.558,2.831,2.831,0,0,0,1.044.2,3.33,3.33,0,0,0,.774-.09,3.223,3.223,0,0,0,.72-.288,2.732,2.732,0,0,0,.576-.468,2.142,2.142,0,0,0,.4-.594l1.692.486a3.961,3.961,0,0,1-1.62,1.746A5,5,0,0,1,81.934,71.18Zm2.862-5.6a3.049,3.049,0,0,0-.306-1.1,2.6,2.6,0,0,0-.612-.846A2.692,2.692,0,0,0,83,63.08a2.947,2.947,0,0,0-2.124,0,2.741,2.741,0,0,0-.864.558,2.6,2.6,0,0,0-.612.846,3.3,3.3,0,0,0-.288,1.1Zm2.5,3.762a2.154,2.154,0,0,0,.9-.234,1.666,1.666,0,0,0,.612-.756,6.027,6.027,0,0,0,.414-1.494q.18-.954.342-2.5l.306-2.772h6.21V71H94.119V63.206H91.635L91.4,64.934a30.284,30.284,0,0,1-.54,2.988,6.266,6.266,0,0,1-.738,1.872,2.457,2.457,0,0,1-1.08.972,4.109,4.109,0,0,1-1.548.324Zm15.634,1.836a5.111,5.111,0,0,1-2-.378,4.87,4.87,0,0,1-1.548-1.062,4.952,4.952,0,0,1-.99-1.548,5.294,5.294,0,0,1,0-3.744,4.9,4.9,0,0,1,.99-1.566,4.512,4.512,0,0,1,1.548-1.062,4.954,4.954,0,0,1,2.016-.4,4.782,4.782,0,0,1,1.98.4,4.661,4.661,0,0,1,1.53,1.062,4.287,4.287,0,0,1,.954,1.53,4.895,4.895,0,0,1,.342,1.818q0,.216-.018.414-.018.18-.036.306h-7.542a3.051,3.051,0,0,0,.918,2.016,2.967,2.967,0,0,0,.882.558,2.831,2.831,0,0,0,1.044.2,3.33,3.33,0,0,0,.774-.09,3.223,3.223,0,0,0,.72-.288,2.732,2.732,0,0,0,.576-.468,2.142,2.142,0,0,0,.4-.594l1.692.486a3.961,3.961,0,0,1-1.62,1.746A5,5,0,0,1,102.931,71.18Zm2.862-5.6a3.049,3.049,0,0,0-.306-1.1,2.6,2.6,0,0,0-.612-.846,2.692,2.692,0,0,0-.882-.558,2.947,2.947,0,0,0-2.124,0,2.741,2.741,0,0,0-.864.558,2.6,2.6,0,0,0-.612.846,3.3,3.3,0,0,0-.288,1.1Zm8.023,5.6a5.111,5.111,0,0,1-2-.378,4.87,4.87,0,0,1-1.548-1.062,4.952,4.952,0,0,1-.99-1.548,5.294,5.294,0,0,1,0-3.744,4.9,4.9,0,0,1,.99-1.566,4.511,4.511,0,0,1,1.548-1.062,4.954,4.954,0,0,1,2.016-.4,4.782,4.782,0,0,1,1.98.4,4.661,4.661,0,0,1,1.53,1.062,4.286,4.286,0,0,1,.954,1.53,4.894,4.894,0,0,1,.342,1.818q0,.216-.018.414-.018.18-.036.306h-7.542a3.051,3.051,0,0,0,.918,2.016,2.967,2.967,0,0,0,.882.558,2.831,2.831,0,0,0,1.044.2,3.33,3.33,0,0,0,.774-.09,3.223,3.223,0,0,0,.72-.288,2.732,2.732,0,0,0,.576-.468,2.141,2.141,0,0,0,.4-.594l1.692.486a3.961,3.961,0,0,1-1.62,1.746A5,5,0,0,1,113.816,71.18Zm2.862-5.6a3.049,3.049,0,0,0-.306-1.1,2.6,2.6,0,0,0-.612-.846,2.692,2.692,0,0,0-.882-.558,2.947,2.947,0,0,0-2.124,0,2.741,2.741,0,0,0-.864.558,2.6,2.6,0,0,0-.612.846,3.3,3.3,0,0,0-.288,1.1Zm9.788-4,2.34,3.96h1.224v-3.96h2.016v3.96h1.224l2.34-3.96h2.2l-2.88,4.572L138.094,71h-2.268l-2.34-3.888h-1.458V71h-1.98V67.112h-1.44L126.268,71h-2.286l3.15-4.842-2.88-4.572Zm15.065,6.606,4.824-6.606h1.512V71h-1.944V64.538L141.189,71h-1.6V61.586h1.944ZM154.629,71h-1.944V63.3h-3.06v-1.71h8.064V63.3h-3.06Zm4.812-9.414h1.944V64.7H163.2a4.184,4.184,0,0,1,1.3.2,2.986,2.986,0,0,1,1.1.612,2.694,2.694,0,0,1,.756.99,3.1,3.1,0,0,1,.288,1.368,3.143,3.143,0,0,1-.288,1.386,2.827,2.827,0,0,1-.738.972,3.132,3.132,0,0,1-1.1.594,4.506,4.506,0,0,1-1.278.18h-3.8Zm3.672,7.812a1.633,1.633,0,0,0,1.116-.378,1.427,1.427,0,0,0,.432-1.134,1.476,1.476,0,0,0-.45-1.17,1.539,1.539,0,0,0-1.08-.414h-1.746v3.1Z" fill="#2f4152"/>
    </g>
    <g id="Frame_270" data-name="Frame 270" transform="translate(378 808)">
      <rect id="Прямоугольник_4" data-name="Прямоугольник 4" width="68" height="68" rx="34" fill="#b24d97"/>
      <path id="Контур_12" data-name="Контур 12" d="M34.68,30.784A11.663,11.663,0,0,1,39.1,31.6a10.7,10.7,0,0,1,3.552,2.256A9.619,9.619,0,0,1,45,37.312a11.745,11.745,0,0,1-.1,9.072,10.083,10.083,0,0,1-2.592,3.6,11.109,11.109,0,0,1-3.888,2.352,14.146,14.146,0,0,1-4.848.816,13.069,13.069,0,0,1-6.624-1.68,11.1,11.1,0,0,1-4.464-4.464l3.168-3.024a10.543,10.543,0,0,0,3.456,3.264A8.723,8.723,0,0,0,33.624,48.5a6.821,6.821,0,0,0,4.9-1.824,6.374,6.374,0,0,0,1.92-4.848,6.151,6.151,0,0,0-.528-2.592,5.576,5.576,0,0,0-1.344-2.016A6.067,6.067,0,0,0,36.5,35.872a6.552,6.552,0,0,0-2.544-.48,7.334,7.334,0,0,0-3.408.816,6.4,6.4,0,0,0-2.592,2.3H23.3q.048-.192.192-1.152l.48-2.4q.288-1.44.624-3.216t.72-3.6q.864-4.272,1.872-9.552H43.848V23.44H31.032L29.3,32.752a5.569,5.569,0,0,1,2.16-1.44A9.035,9.035,0,0,1,34.68,30.784Z" fill="#fff"/>
    </g>
  </g>
</svg>
