<svg xmlns="http://www.w3.org/2000/svg" width="270" height="179" viewBox="0 0 270 179">
  <g id="block4" transform="translate(-355 -113)">
    <g id="_4" data-name="4" transform="translate(355 163)">
      <path id="Контур_7" data-name="Контур 7" d="M0,50A50,50,0,0,1,50,0H270V79a50,50,0,0,1-50,50H0Z" fill="#ceebfb"/>
      <path id="Контур_8" data-name="Контур 8" d="M31.476,35.22H41.844V48H39.81V37h-6.3V48H31.476Zm15.2,9.972L51.5,38.586h1.512V48H51.064V41.538L46.33,48h-1.6V38.586h1.944ZM59.771,48H57.826V40.3h-3.06v-1.71h8.064V40.3h-3.06Zm7.1.18a3.711,3.711,0,0,1-1.278-.216,3.332,3.332,0,0,1-1.008-.63,3.089,3.089,0,0,1-.666-.936,2.911,2.911,0,0,1-.234-1.17,2.522,2.522,0,0,1,.288-1.206,2.858,2.858,0,0,1,.81-.936,4.1,4.1,0,0,1,1.26-.612,5.751,5.751,0,0,1,1.62-.216,6.868,6.868,0,0,1,1.314.126,6.152,6.152,0,0,1,1.17.306v-.648a2.152,2.152,0,0,0-.594-1.62,2.315,2.315,0,0,0-1.71-.594,4.079,4.079,0,0,0-1.494.288,7.251,7.251,0,0,0-1.494.792l-.612-1.26a6.675,6.675,0,0,1,3.78-1.224,4.311,4.311,0,0,1,3.024.99,3.664,3.664,0,0,1,1.08,2.844v3.4q0,.63.522.648V48a5.065,5.065,0,0,1-.5.072q-.2.018-.4.018a1.308,1.308,0,0,1-.9-.288,1.253,1.253,0,0,1-.378-.738l-.054-.594a4.261,4.261,0,0,1-1.566,1.278A4.591,4.591,0,0,1,66.873,48.18Zm.54-1.458a3.6,3.6,0,0,0,1.35-.252,2.4,2.4,0,0,0,1.008-.738.913.913,0,0,0,.378-.684V43.806a5.942,5.942,0,0,0-1.08-.306,5.77,5.77,0,0,0-1.1-.108,3.027,3.027,0,0,0-1.746.468,1.389,1.389,0,0,0-.666,1.206,1.561,1.561,0,0,0,.522,1.188A1.92,1.92,0,0,0,67.413,46.722ZM78.994,48.18a5.111,5.111,0,0,1-2-.378,4.87,4.87,0,0,1-1.548-1.062,4.952,4.952,0,0,1-.99-1.548,5.294,5.294,0,0,1,0-3.744,4.9,4.9,0,0,1,.99-1.566A4.511,4.511,0,0,1,77,38.82a4.954,4.954,0,0,1,2.016-.4,4.782,4.782,0,0,1,1.98.4,4.661,4.661,0,0,1,1.53,1.062,4.287,4.287,0,0,1,.954,1.53,4.895,4.895,0,0,1,.342,1.818q0,.216-.018.414-.018.18-.036.306H76.222a3.051,3.051,0,0,0,.918,2.016,2.967,2.967,0,0,0,.882.558,2.831,2.831,0,0,0,1.044.2,3.33,3.33,0,0,0,.774-.09,3.222,3.222,0,0,0,.72-.288,2.732,2.732,0,0,0,.576-.468,2.142,2.142,0,0,0,.4-.594l1.692.486a3.961,3.961,0,0,1-1.62,1.746A5,5,0,0,1,78.994,48.18Zm2.862-5.6a3.049,3.049,0,0,0-.306-1.1,2.6,2.6,0,0,0-.612-.846,2.692,2.692,0,0,0-.882-.558,2.947,2.947,0,0,0-2.124,0,2.741,2.741,0,0,0-.864.558,2.6,2.6,0,0,0-.612.846,3.3,3.3,0,0,0-.288,1.1ZM89.367,48H87.423V40.3h-3.06v-1.71h8.064V40.3h-3.06Zm8.585.18a5.111,5.111,0,0,1-2-.378,4.87,4.87,0,0,1-1.548-1.062,4.952,4.952,0,0,1-.99-1.548,5.294,5.294,0,0,1,0-3.744,4.9,4.9,0,0,1,.99-1.566,4.511,4.511,0,0,1,1.548-1.062,4.954,4.954,0,0,1,2.016-.4,4.782,4.782,0,0,1,1.98.4,4.661,4.661,0,0,1,1.53,1.062,4.286,4.286,0,0,1,.954,1.53,4.894,4.894,0,0,1,.342,1.818q0,.216-.018.414-.018.18-.036.306H95.18a3.051,3.051,0,0,0,.918,2.016,2.967,2.967,0,0,0,.882.558,2.831,2.831,0,0,0,1.044.2,3.33,3.33,0,0,0,.774-.09,3.222,3.222,0,0,0,.72-.288,2.732,2.732,0,0,0,.576-.468,2.142,2.142,0,0,0,.4-.594l1.692.486a3.961,3.961,0,0,1-1.62,1.746A5,5,0,0,1,97.952,48.18Zm2.862-5.6a3.049,3.049,0,0,0-.306-1.1,2.6,2.6,0,0,0-.612-.846,2.692,2.692,0,0,0-.882-.558,2.947,2.947,0,0,0-2.124,0,2.741,2.741,0,0,0-.864.558,2.6,2.6,0,0,0-.612.846,3.3,3.3,0,0,0-.288,1.1Zm3.145.7a5.132,5.132,0,0,1,.342-1.872,4.7,4.7,0,0,1,.972-1.548,4.638,4.638,0,0,1,1.548-1.044,4.954,4.954,0,0,1,2.016-.4,4.65,4.65,0,0,1,2.5.648,3.981,3.981,0,0,1,1.584,1.692L111,41.376a2.409,2.409,0,0,0-.918-.918,2.456,2.456,0,0,0-1.278-.342,2.7,2.7,0,0,0-1.116.234,2.64,2.64,0,0,0-.882.666,3.025,3.025,0,0,0-.594.99,3.615,3.615,0,0,0-.216,1.278,3.711,3.711,0,0,0,.216,1.278,3.538,3.538,0,0,0,.612,1.008,3.088,3.088,0,0,0,.9.684,2.655,2.655,0,0,0,1.1.234,2.959,2.959,0,0,0,.72-.09,2.656,2.656,0,0,0,.648-.288,2.27,2.27,0,0,0,.522-.414,1.5,1.5,0,0,0,.342-.5l1.944.576a3.9,3.9,0,0,1-1.566,1.746,5.047,5.047,0,0,1-6.138-.792,4.932,4.932,0,0,1-1.332-3.438Zm10.883-4.7h1.944V41.7H118.6a4.185,4.185,0,0,1,1.3.2,2.986,2.986,0,0,1,1.1.612,2.7,2.7,0,0,1,.756.99,3.1,3.1,0,0,1,.288,1.368,3.143,3.143,0,0,1-.288,1.386,2.827,2.827,0,0,1-.738.972,3.132,3.132,0,0,1-1.1.594,4.506,4.506,0,0,1-1.278.18h-3.8Zm3.672,7.812a1.633,1.633,0,0,0,1.116-.378,1.427,1.427,0,0,0,.432-1.134,1.476,1.476,0,0,0-.45-1.17,1.539,1.539,0,0,0-1.08-.414h-1.746v3.1Zm15.143-7.812a2.409,2.409,0,0,1,.936.18,2.091,2.091,0,0,1,.756.5,2.125,2.125,0,0,1,.5.738,2.363,2.363,0,0,1,.18.918,2.827,2.827,0,0,1-.306,1.242,1.937,1.937,0,0,1-1.044.918,2.339,2.339,0,0,1,1.26.828,2.6,2.6,0,0,1-.4,3.42,3.645,3.645,0,0,1-2.286.666h-4.734V38.586Zm-.864,3.978a1.306,1.306,0,0,0,.936-.324,1.277,1.277,0,0,0,.36-.972,1.367,1.367,0,0,0-.288-.882,1.106,1.106,0,0,0-.918-.36h-2.412v2.538Zm.288,4a1.271,1.271,0,0,0,.99-.4,1.4,1.4,0,0,0,.378-.972,1.369,1.369,0,0,0-.36-.954,1.215,1.215,0,0,0-.972-.4h-2.646V46.56ZM144.1,38.586h2.16l-3.69,4.572L146.527,48h-2.214l-3.078-3.888h-.882V48h-1.944V38.586h1.944V42.51h.738Zm3.916,11.34a1.95,1.95,0,0,0,.594.324,1.922,1.922,0,0,0,.576.09,1.014,1.014,0,0,0,.828-.522,5.6,5.6,0,0,0,.72-1.818l-3.87-9.414H148.9l2.916,7.668,2.592-7.668h1.872L152.369,49.26a5.217,5.217,0,0,1-1.3,2.178,2.512,2.512,0,0,1-1.71.612,2.839,2.839,0,0,1-.756-.09,1.522,1.522,0,0,1-.594-.324Zm8.969-6.642a5.132,5.132,0,0,1,.342-1.872,4.7,4.7,0,0,1,.972-1.548,4.638,4.638,0,0,1,1.548-1.044,4.954,4.954,0,0,1,2.016-.4,4.65,4.65,0,0,1,2.5.648,3.981,3.981,0,0,1,1.584,1.692l-1.926.612a2.409,2.409,0,0,0-.918-.918,2.456,2.456,0,0,0-1.278-.342,2.7,2.7,0,0,0-1.116.234,2.64,2.64,0,0,0-.882.666,3.025,3.025,0,0,0-.594.99,3.615,3.615,0,0,0-.216,1.278,3.711,3.711,0,0,0,.216,1.278,3.538,3.538,0,0,0,.612,1.008,3.088,3.088,0,0,0,.9.684,2.654,2.654,0,0,0,1.1.234,2.959,2.959,0,0,0,.72-.09,2.656,2.656,0,0,0,.648-.288,2.27,2.27,0,0,0,.522-.414,1.5,1.5,0,0,0,.342-.5l1.944.576a3.9,3.9,0,0,1-1.566,1.746,5.047,5.047,0,0,1-6.138-.792,4.933,4.933,0,0,1-1.332-3.438Zm12.827-.954h4.284V38.586h1.944V48h-1.944V44h-4.284v4h-1.944V38.586h1.944Zm13.047,5.85a4.954,4.954,0,0,1-2.016-.4,4.651,4.651,0,0,1-2.484-2.61,5.226,5.226,0,0,1-.342-1.872,5.083,5.083,0,0,1,.342-1.854,4.66,4.66,0,0,1,.972-1.566,4.776,4.776,0,0,1,3.528-1.458,4.782,4.782,0,0,1,1.98.4,4.661,4.661,0,0,1,1.53,1.062,4.52,4.52,0,0,1,.99,1.566A5.083,5.083,0,0,1,187.7,43.3a5.226,5.226,0,0,1-.342,1.872,4.558,4.558,0,0,1-.99,1.548,4.661,4.661,0,0,1-1.53,1.062A4.782,4.782,0,0,1,182.856,48.18Zm-2.808-4.86a3.561,3.561,0,0,0,.216,1.26,3.244,3.244,0,0,0,.594,1.008,3,3,0,0,0,.882.666,2.7,2.7,0,0,0,1.116.234,2.575,2.575,0,0,0,1.1-.234,2.8,2.8,0,0,0,.9-.684,3.244,3.244,0,0,0,.594-1.008,3.562,3.562,0,0,0,.216-1.26,3.509,3.509,0,0,0-.216-1.242,3.2,3.2,0,0,0-.594-1.026,2.591,2.591,0,0,0-.9-.666,2.421,2.421,0,0,0-1.1-.252,2.5,2.5,0,0,0-1.1.252,2.866,2.866,0,0,0-.882.684,3.376,3.376,0,0,0-.828,2.268Zm9.712,6.426.432-1.854h-.648V45.7h1.782v2.2l-.63,1.854ZM36.57,71.18a3.691,3.691,0,0,1-2-.54,4.031,4.031,0,0,1-1.368-1.4v5.6h-1.98V61.586H32.97v1.692a4.14,4.14,0,0,1,1.386-1.35,3.786,3.786,0,0,1,1.944-.5,4,4,0,0,1,1.782.4,4.526,4.526,0,0,1,1.4,1.062A4.772,4.772,0,0,1,40.4,64.43a5.083,5.083,0,0,1,.342,1.854,5.944,5.944,0,0,1-.306,1.926,4.869,4.869,0,0,1-.864,1.548A4.36,4.36,0,0,1,38.244,70.8,3.69,3.69,0,0,1,36.57,71.18Zm-.648-1.692a2.363,2.363,0,0,0,1.134-.27,2.71,2.71,0,0,0,.882-.72,3.193,3.193,0,0,0,.576-1.026,3.629,3.629,0,0,0,.2-1.188,3.221,3.221,0,0,0-.234-1.224,3.07,3.07,0,0,0-.612-1.008,2.755,2.755,0,0,0-2.088-.936,2.409,2.409,0,0,0-.792.144,3.145,3.145,0,0,0-.774.4,2.963,2.963,0,0,0-.63.594,1.891,1.891,0,0,0-.378.72v2.466a3.645,3.645,0,0,0,.468.81,3.6,3.6,0,0,0,.63.648,3.272,3.272,0,0,0,.774.432A2.3,2.3,0,0,0,35.922,69.488Zm9.286,1.692a3.711,3.711,0,0,1-1.278-.216,3.332,3.332,0,0,1-1.008-.63,3.089,3.089,0,0,1-.666-.936,2.911,2.911,0,0,1-.234-1.17,2.522,2.522,0,0,1,.288-1.206,2.858,2.858,0,0,1,.81-.936,4.1,4.1,0,0,1,1.26-.612A5.751,5.751,0,0,1,46,65.258a6.868,6.868,0,0,1,1.314.126,6.152,6.152,0,0,1,1.17.306v-.648a2.152,2.152,0,0,0-.594-1.62,2.315,2.315,0,0,0-1.71-.594,4.079,4.079,0,0,0-1.494.288,7.251,7.251,0,0,0-1.494.792l-.612-1.26a6.675,6.675,0,0,1,3.78-1.224,4.311,4.311,0,0,1,3.024.99,3.664,3.664,0,0,1,1.08,2.844v3.4q0,.63.522.648V71a5.065,5.065,0,0,1-.5.072q-.2.018-.4.018a1.308,1.308,0,0,1-.9-.288,1.253,1.253,0,0,1-.378-.738l-.054-.594a4.261,4.261,0,0,1-1.566,1.278A4.591,4.591,0,0,1,45.208,71.18Zm.54-1.458a3.6,3.6,0,0,0,1.35-.252,2.4,2.4,0,0,0,1.008-.738.913.913,0,0,0,.378-.684V66.806A5.942,5.942,0,0,0,47.4,66.5a5.769,5.769,0,0,0-1.1-.108,3.027,3.027,0,0,0-1.746.468,1.389,1.389,0,0,0-.666,1.206,1.561,1.561,0,0,0,.522,1.188A1.92,1.92,0,0,0,45.748,69.722Zm6.812-7.146a4.175,4.175,0,0,1,1.35-.864,4.462,4.462,0,0,1,1.6-.288,3.874,3.874,0,0,1,1.152.162,2.651,2.651,0,0,1,.918.468,1.93,1.93,0,0,1,.612.738,2.185,2.185,0,0,1,.216.99,2.216,2.216,0,0,1-.432,1.368,1.686,1.686,0,0,1-1.17.666,2.485,2.485,0,0,1,1.584.828,2.421,2.421,0,0,1,.558,1.638,2.619,2.619,0,0,1-.27,1.188,2.778,2.778,0,0,1-.72.918,3.536,3.536,0,0,1-1.116.594,4.849,4.849,0,0,1-1.422.2,3.836,3.836,0,0,1-3.15-1.368l.99-1.314a2.435,2.435,0,0,0,2.088,1.008,1.963,1.963,0,0,0,1.242-.342,1.258,1.258,0,0,0,.45-1.044q0-1.566-2.25-1.566h-.666v-1.3h.666a2.228,2.228,0,0,0,1.35-.36,1.13,1.13,0,0,0,.486-.954.891.891,0,0,0-.36-.756,1.408,1.408,0,0,0-.936-.288,2.813,2.813,0,0,0-1.872.792ZM62.853,65.33h4.284V61.586H69.08V71H67.136V67H62.853v4H60.909V61.586h1.944ZM75.9,71.18a4.954,4.954,0,0,1-2.016-.4,4.651,4.651,0,0,1-2.484-2.61,5.226,5.226,0,0,1-.342-1.872,5.083,5.083,0,0,1,.342-1.854,4.66,4.66,0,0,1,.972-1.566A4.776,4.776,0,0,1,75.9,61.424a4.782,4.782,0,0,1,1.98.4,4.661,4.661,0,0,1,1.53,1.062,4.521,4.521,0,0,1,.99,1.566,5.083,5.083,0,0,1,.342,1.854,5.226,5.226,0,0,1-.342,1.872,4.559,4.559,0,0,1-.99,1.548,4.661,4.661,0,0,1-1.53,1.062A4.782,4.782,0,0,1,75.9,71.18Zm-2.808-4.86a3.561,3.561,0,0,0,.216,1.26,3.244,3.244,0,0,0,.594,1.008,3,3,0,0,0,.882.666,2.7,2.7,0,0,0,1.116.234,2.575,2.575,0,0,0,1.1-.234,2.8,2.8,0,0,0,.9-.684,3.244,3.244,0,0,0,.594-1.008,3.561,3.561,0,0,0,.216-1.26,3.509,3.509,0,0,0-.216-1.242,3.2,3.2,0,0,0-.594-1.026,2.591,2.591,0,0,0-.9-.666,2.421,2.421,0,0,0-1.1-.252,2.5,2.5,0,0,0-1.1.252,2.866,2.866,0,0,0-.882.684,3.376,3.376,0,0,0-.828,2.268Zm13.816,4.86a4.954,4.954,0,0,1-2.016-.4,4.651,4.651,0,0,1-2.484-2.61,5.226,5.226,0,0,1-.342-1.872,5.083,5.083,0,0,1,.342-1.854,4.66,4.66,0,0,1,.972-1.566,4.776,4.776,0,0,1,3.528-1.458,4.782,4.782,0,0,1,1.98.4,4.661,4.661,0,0,1,1.53,1.062,4.521,4.521,0,0,1,.99,1.566A5.083,5.083,0,0,1,91.75,66.3a5.226,5.226,0,0,1-.342,1.872,4.559,4.559,0,0,1-.99,1.548,4.661,4.661,0,0,1-1.53,1.062A4.782,4.782,0,0,1,86.908,71.18ZM84.1,66.32a3.561,3.561,0,0,0,.216,1.26,3.244,3.244,0,0,0,.594,1.008,3,3,0,0,0,.882.666,2.7,2.7,0,0,0,1.116.234,2.575,2.575,0,0,0,1.1-.234,2.8,2.8,0,0,0,.9-.684,3.244,3.244,0,0,0,.594-1.008,3.561,3.561,0,0,0,.216-1.26A3.509,3.509,0,0,0,89.5,65.06a3.2,3.2,0,0,0-.594-1.026,2.591,2.591,0,0,0-.9-.666,2.421,2.421,0,0,0-1.1-.252,2.5,2.5,0,0,0-1.1.252,2.866,2.866,0,0,0-.882.684A3.376,3.376,0,0,0,84.1,66.32Zm14.194-6.228a3.692,3.692,0,0,0-2,1.116,4.466,4.466,0,0,0-.99,2.322,3.878,3.878,0,0,1,1.368-1.1,4.162,4.162,0,0,1,1.782-.378,3.761,3.761,0,0,1,1.638.36,3.93,3.93,0,0,1,1.332.954,4.6,4.6,0,0,1,.882,1.44,5.13,5.13,0,0,1-.018,3.636,4.151,4.151,0,0,1-.936,1.44,4.106,4.106,0,0,1-1.458.954,5.244,5.244,0,0,1-1.944.342,4.1,4.1,0,0,1-3.42-1.476A7.068,7.068,0,0,1,93.38,65.33,7.827,7.827,0,0,1,94.6,60.614,5.994,5.994,0,0,1,98.222,58.4l3.222-.738.216,1.656Zm-2.88,6.426a3.637,3.637,0,0,0,.2,1.224,3.229,3.229,0,0,0,.54.954,2.809,2.809,0,0,0,.828.63,2.585,2.585,0,0,0,1.062.216,2.51,2.51,0,0,0,1.854-.81,2.55,2.55,0,0,0,.522-.918,3.427,3.427,0,0,0,.2-1.188,3.224,3.224,0,0,0-.2-1.152,2.619,2.619,0,0,0-.558-.918,2.24,2.24,0,0,0-.828-.576,2.585,2.585,0,0,0-1.062-.216,2.654,2.654,0,0,0-1.044.2,2.276,2.276,0,0,0-.81.576,2.815,2.815,0,0,0-.522.864A3.3,3.3,0,0,0,95.414,66.518Zm14.592,4.662a3.691,3.691,0,0,1-2-.54,4.03,4.03,0,0,1-1.368-1.4v5.6h-1.98V61.586h1.746v1.692a4.14,4.14,0,0,1,1.386-1.35,3.786,3.786,0,0,1,1.944-.5,4,4,0,0,1,1.782.4,4.526,4.526,0,0,1,1.4,1.062,4.772,4.772,0,0,1,.918,1.548,5.083,5.083,0,0,1,.342,1.854,5.944,5.944,0,0,1-.306,1.926,4.869,4.869,0,0,1-.864,1.548A4.36,4.36,0,0,1,111.68,70.8,3.69,3.69,0,0,1,110.006,71.18Zm-.648-1.692a2.363,2.363,0,0,0,1.134-.27,2.71,2.71,0,0,0,.882-.72,3.193,3.193,0,0,0,.576-1.026,3.629,3.629,0,0,0,.2-1.188,3.221,3.221,0,0,0-.234-1.224,3.07,3.07,0,0,0-.612-1.008,2.755,2.755,0,0,0-2.088-.936,2.409,2.409,0,0,0-.792.144,3.145,3.145,0,0,0-.774.4,2.962,2.962,0,0,0-.63.594,1.891,1.891,0,0,0-.378.72v2.466a3.645,3.645,0,0,0,.468.81,3.6,3.6,0,0,0,.63.648,3.272,3.272,0,0,0,.774.432A2.3,2.3,0,0,0,109.358,69.488Zm9.286,1.692a3.711,3.711,0,0,1-1.278-.216,3.332,3.332,0,0,1-1.008-.63,3.089,3.089,0,0,1-.666-.936,2.911,2.911,0,0,1-.234-1.17,2.522,2.522,0,0,1,.288-1.206,2.858,2.858,0,0,1,.81-.936,4.1,4.1,0,0,1,1.26-.612,5.751,5.751,0,0,1,1.62-.216,6.868,6.868,0,0,1,1.314.126,6.152,6.152,0,0,1,1.17.306v-.648a2.152,2.152,0,0,0-.594-1.62,2.315,2.315,0,0,0-1.71-.594,4.079,4.079,0,0,0-1.494.288,7.251,7.251,0,0,0-1.494.792l-.612-1.26a6.675,6.675,0,0,1,3.78-1.224,4.311,4.311,0,0,1,3.024.99,3.664,3.664,0,0,1,1.08,2.844v3.4q0,.63.522.648V71a5.065,5.065,0,0,1-.5.072q-.2.018-.4.018a1.308,1.308,0,0,1-.9-.288,1.253,1.253,0,0,1-.378-.738l-.054-.594a4.261,4.261,0,0,1-1.566,1.278A4.591,4.591,0,0,1,118.644,71.18Zm.54-1.458a3.6,3.6,0,0,0,1.35-.252,2.4,2.4,0,0,0,1.008-.738.913.913,0,0,0,.378-.684V66.806a5.942,5.942,0,0,0-1.08-.306,5.769,5.769,0,0,0-1.1-.108A3.027,3.027,0,0,0,118,66.86a1.389,1.389,0,0,0-.666,1.206,1.561,1.561,0,0,0,.522,1.188A1.92,1.92,0,0,0,119.184,69.722ZM126,62.576a4.175,4.175,0,0,1,1.35-.864,4.462,4.462,0,0,1,1.6-.288,3.873,3.873,0,0,1,1.152.162,2.651,2.651,0,0,1,.918.468,1.929,1.929,0,0,1,.612.738,2.185,2.185,0,0,1,.216.99,2.215,2.215,0,0,1-.432,1.368,1.686,1.686,0,0,1-1.17.666,2.485,2.485,0,0,1,1.584.828,2.421,2.421,0,0,1,.558,1.638,2.619,2.619,0,0,1-.27,1.188,2.778,2.778,0,0,1-.72.918,3.537,3.537,0,0,1-1.116.594,4.849,4.849,0,0,1-1.422.2,3.836,3.836,0,0,1-3.15-1.368l.99-1.314a2.435,2.435,0,0,0,2.088,1.008,1.963,1.963,0,0,0,1.242-.342,1.258,1.258,0,0,0,.45-1.044q0-1.566-2.25-1.566h-.666v-1.3h.666a2.228,2.228,0,0,0,1.35-.36,1.13,1.13,0,0,0,.486-.954.891.891,0,0,0-.36-.756,1.408,1.408,0,0,0-.936-.288,2.813,2.813,0,0,0-1.872.792Zm10.293,2.754h4.284V61.586h1.944V71h-1.944V67h-4.284v4h-1.944V61.586h1.944Zm13.048,5.85a4.954,4.954,0,0,1-2.016-.4,4.651,4.651,0,0,1-2.484-2.61,5.226,5.226,0,0,1-.342-1.872,5.083,5.083,0,0,1,.342-1.854,4.66,4.66,0,0,1,.972-1.566,4.776,4.776,0,0,1,3.528-1.458,4.782,4.782,0,0,1,1.98.4,4.661,4.661,0,0,1,1.53,1.062,4.52,4.52,0,0,1,.99,1.566,5.083,5.083,0,0,1,.342,1.854,5.226,5.226,0,0,1-.342,1.872,4.558,4.558,0,0,1-.99,1.548,4.661,4.661,0,0,1-1.53,1.062A4.782,4.782,0,0,1,149.336,71.18Zm-2.808-4.86a3.562,3.562,0,0,0,.216,1.26,3.244,3.244,0,0,0,.594,1.008,3,3,0,0,0,.882.666,2.7,2.7,0,0,0,1.116.234,2.575,2.575,0,0,0,1.1-.234,2.8,2.8,0,0,0,.9-.684,3.244,3.244,0,0,0,.594-1.008,3.561,3.561,0,0,0,.216-1.26,3.509,3.509,0,0,0-.216-1.242,3.2,3.2,0,0,0-.594-1.026,2.591,2.591,0,0,0-.9-.666,2.421,2.421,0,0,0-1.1-.252,2.5,2.5,0,0,0-1.1.252,2.866,2.866,0,0,0-.882.684,3.376,3.376,0,0,0-.828,2.268Zm16.193,1.872,4.824-6.606h1.512V71h-1.944V64.538L162.379,71h-1.6V61.586h1.944ZM39.126,94H37.182V86.3H33.168V94H31.224V84.586h7.9Zm7.978.18a3.691,3.691,0,0,1-2-.54,4.031,4.031,0,0,1-1.368-1.4v5.6h-1.98V84.586H43.5v1.692a4.139,4.139,0,0,1,1.386-1.35,3.786,3.786,0,0,1,1.944-.5,4,4,0,0,1,1.782.4,4.526,4.526,0,0,1,1.4,1.062,4.772,4.772,0,0,1,.918,1.548,5.083,5.083,0,0,1,.342,1.854,5.944,5.944,0,0,1-.306,1.926,4.869,4.869,0,0,1-.864,1.548A4.36,4.36,0,0,1,48.778,93.8,3.69,3.69,0,0,1,47.1,94.18Zm-.648-1.692a2.363,2.363,0,0,0,1.134-.27,2.71,2.71,0,0,0,.882-.72,3.193,3.193,0,0,0,.576-1.026,3.629,3.629,0,0,0,.2-1.188,3.221,3.221,0,0,0-.234-1.224,3.07,3.07,0,0,0-.612-1.008,2.755,2.755,0,0,0-2.088-.936,2.409,2.409,0,0,0-.792.144,3.145,3.145,0,0,0-.774.4,2.963,2.963,0,0,0-.63.594,1.891,1.891,0,0,0-.378.72v2.466a3.645,3.645,0,0,0,.468.81,3.6,3.6,0,0,0,.63.648,3.272,3.272,0,0,0,.774.432A2.3,2.3,0,0,0,46.456,92.488Zm9.286,1.692a3.711,3.711,0,0,1-1.278-.216,3.332,3.332,0,0,1-1.008-.63,3.089,3.089,0,0,1-.666-.936,2.911,2.911,0,0,1-.234-1.17,2.522,2.522,0,0,1,.288-1.206,2.858,2.858,0,0,1,.81-.936,4.1,4.1,0,0,1,1.26-.612,5.751,5.751,0,0,1,1.62-.216,6.868,6.868,0,0,1,1.314.126,6.152,6.152,0,0,1,1.17.306v-.648a2.152,2.152,0,0,0-.594-1.62,2.315,2.315,0,0,0-1.71-.594,4.08,4.08,0,0,0-1.494.288,7.251,7.251,0,0,0-1.494.792l-.612-1.26a6.675,6.675,0,0,1,3.78-1.224,4.311,4.311,0,0,1,3.024.99A3.664,3.664,0,0,1,61,88.258v3.4q0,.63.522.648V94a5.065,5.065,0,0,1-.5.072q-.2.018-.4.018a1.308,1.308,0,0,1-.9-.288,1.253,1.253,0,0,1-.378-.738l-.054-.594a4.261,4.261,0,0,1-1.566,1.278A4.591,4.591,0,0,1,55.741,94.18Zm.54-1.458a3.6,3.6,0,0,0,1.35-.252,2.4,2.4,0,0,0,1.008-.738.913.913,0,0,0,.378-.684V89.806a5.942,5.942,0,0,0-1.08-.306,5.769,5.769,0,0,0-1.1-.108,3.027,3.027,0,0,0-1.746.468,1.389,1.389,0,0,0-.666,1.206,1.561,1.561,0,0,0,.522,1.188A1.92,1.92,0,0,0,56.281,92.722ZM68.8,84.586a2.409,2.409,0,0,1,.936.18,2.091,2.091,0,0,1,.756.5,2.125,2.125,0,0,1,.5.738,2.363,2.363,0,0,1,.18.918,2.827,2.827,0,0,1-.306,1.242,1.937,1.937,0,0,1-1.044.918,2.34,2.34,0,0,1,1.26.828,2.6,2.6,0,0,1-.4,3.42A3.645,3.645,0,0,1,68.4,94H63.669V84.586Zm-.864,3.978a1.306,1.306,0,0,0,.936-.324,1.277,1.277,0,0,0,.36-.972,1.367,1.367,0,0,0-.288-.882,1.106,1.106,0,0,0-.918-.36H65.613v2.538Zm.288,4a1.271,1.271,0,0,0,.99-.4,1.4,1.4,0,0,0,.378-.972,1.368,1.368,0,0,0-.36-.954,1.215,1.215,0,0,0-.972-.4H65.613V92.56ZM75.5,91.192l4.824-6.606h1.512V94H79.887V87.538L75.153,94h-1.6V84.586H75.5Zm7.86,1.152a2.154,2.154,0,0,0,.9-.234,1.666,1.666,0,0,0,.612-.756,6.027,6.027,0,0,0,.414-1.494q.18-.954.342-2.5l.306-2.772h6.21V94H90.178V86.206H87.694l-.234,1.728a30.284,30.284,0,0,1-.54,2.988,6.267,6.267,0,0,1-.738,1.872,2.457,2.457,0,0,1-1.08.972,4.108,4.108,0,0,1-1.548.324Zm11.4-7.758H96.7V87.7h1.818a4.184,4.184,0,0,1,1.3.2,2.986,2.986,0,0,1,1.1.612,2.7,2.7,0,0,1,.756.99,3.1,3.1,0,0,1,.288,1.368,3.143,3.143,0,0,1-.288,1.386,2.827,2.827,0,0,1-.738.972,3.132,3.132,0,0,1-1.1.594,4.506,4.506,0,0,1-1.278.18h-3.8ZM98.431,92.4a1.633,1.633,0,0,0,1.116-.378,1.427,1.427,0,0,0,.432-1.134,1.476,1.476,0,0,0-.45-1.17,1.539,1.539,0,0,0-1.08-.414H96.7v3.1Zm7.294-4.068h4.284V84.586h1.944V94h-1.944V90h-4.284v4h-1.944V84.586h1.944Zm13.047,5.85a4.954,4.954,0,0,1-2.016-.4,4.651,4.651,0,0,1-2.484-2.61,5.226,5.226,0,0,1-.342-1.872,5.083,5.083,0,0,1,.342-1.854,4.659,4.659,0,0,1,.972-1.566,4.776,4.776,0,0,1,3.528-1.458,4.782,4.782,0,0,1,1.98.4,4.661,4.661,0,0,1,1.53,1.062,4.521,4.521,0,0,1,.99,1.566,5.083,5.083,0,0,1,.342,1.854,5.226,5.226,0,0,1-.342,1.872,4.559,4.559,0,0,1-.99,1.548,4.661,4.661,0,0,1-1.53,1.062A4.782,4.782,0,0,1,118.772,94.18Zm-2.808-4.86a3.562,3.562,0,0,0,.216,1.26,3.244,3.244,0,0,0,.594,1.008,3,3,0,0,0,.882.666,2.7,2.7,0,0,0,1.116.234,2.575,2.575,0,0,0,1.1-.234,2.8,2.8,0,0,0,.9-.684,3.244,3.244,0,0,0,.594-1.008,3.561,3.561,0,0,0,.216-1.26,3.509,3.509,0,0,0-.216-1.242,3.2,3.2,0,0,0-.594-1.026,2.591,2.591,0,0,0-.9-.666,2.421,2.421,0,0,0-1.1-.252,2.5,2.5,0,0,0-1.1.252,2.866,2.866,0,0,0-.882.684,3.376,3.376,0,0,0-.828,2.268Z" fill="#2f4152"/>
    </g>
    <g id="Frame_269" data-name="Frame 269" transform="translate(378 113)">
      <rect id="Прямоугольник_3" data-name="Прямоугольник 3" width="68" height="68" rx="34" fill="#b24d97"/>
      <path id="Контур_9" data-name="Контур 9" d="M35.792,52.1V44.464H21.056v-4.7L37.472,18.592h3.6V39.664H45.3v4.8H41.072V52.1Zm-9.36-12.432h9.936V26.656Z" fill="#fff"/>
    </g>
  </g>
</svg>
