<svg xmlns="http://www.w3.org/2000/svg" width="270" height="200" viewBox="0 0 270 200">
  <g id="block3" transform="translate(-355 -553)">
    <g id="_3" data-name="3" transform="translate(355 601)">
      <path id="Контур_4" data-name="Контур 4" d="M0,50A50,50,0,0,1,50,0H270V102a50,50,0,0,1-50,50H0Z" fill="#ceebfb"/>
      <path id="Контур_5" data-name="Контур 5" d="M41.25,44.706a2.916,2.916,0,0,1-.324,1.386,3.1,3.1,0,0,1-.846,1.044,3.934,3.934,0,0,1-1.242.648,5.3,5.3,0,0,1-1.53.216h-6.1V35.22h6.588A2.522,2.522,0,0,1,39,35.508a2.953,2.953,0,0,1,.918.756,3.157,3.157,0,0,1,.576,1.044,3.308,3.308,0,0,1,.216,1.17,3.429,3.429,0,0,1-.486,1.764,2.876,2.876,0,0,1-1.35,1.206A3.184,3.184,0,0,1,40.6,42.636,3.3,3.3,0,0,1,41.25,44.706Zm-2.07-.378a2.017,2.017,0,0,0-.144-.756,1.919,1.919,0,0,0-.36-.63,1.594,1.594,0,0,0-.54-.432,1.548,1.548,0,0,0-.7-.162H33.222v3.906h4.086a1.882,1.882,0,0,0,.738-.144,2.107,2.107,0,0,0,.594-.414,2.063,2.063,0,0,0,.4-.612A2.017,2.017,0,0,0,39.18,44.328Zm-5.958-7.362v3.762H36.93a1.587,1.587,0,0,0,.684-.144,1.832,1.832,0,0,0,.558-.378,1.622,1.622,0,0,0,.378-.594,2.137,2.137,0,0,0-.324-2.106,1.5,1.5,0,0,0-1.188-.54ZM43.6,38.586h1.944V41.7h1.71a4.185,4.185,0,0,1,1.3.2,2.986,2.986,0,0,1,1.1.612,2.785,2.785,0,0,1,.738.99,3.1,3.1,0,0,1,.288,1.368,3.143,3.143,0,0,1-.288,1.386,2.827,2.827,0,0,1-.738.972,3.157,3.157,0,0,1-1.08.594,4.571,4.571,0,0,1-1.3.18H43.6Zm8.046,0h1.962V48H51.649Zm-4.5,7.812a1.592,1.592,0,0,0,1.116-.378,1.427,1.427,0,0,0,.432-1.134,1.476,1.476,0,0,0-.45-1.17,1.539,1.539,0,0,0-1.08-.414h-1.62v3.1ZM68.775,48H66.831V40.3H62.817V48H60.873V38.586h7.9Zm6.826.18a4.954,4.954,0,0,1-2.016-.4,4.651,4.651,0,0,1-2.484-2.61,5.226,5.226,0,0,1-.342-1.872,5.083,5.083,0,0,1,.342-1.854,4.66,4.66,0,0,1,.972-1.566A4.776,4.776,0,0,1,75.6,38.424a4.782,4.782,0,0,1,1.98.4,4.661,4.661,0,0,1,1.53,1.062,4.521,4.521,0,0,1,.99,1.566,5.083,5.083,0,0,1,.342,1.854,5.226,5.226,0,0,1-.342,1.872,4.559,4.559,0,0,1-.99,1.548,4.661,4.661,0,0,1-1.53,1.062A4.782,4.782,0,0,1,75.6,48.18Zm-2.808-4.86a3.561,3.561,0,0,0,.216,1.26,3.244,3.244,0,0,0,.594,1.008,3,3,0,0,0,.882.666,2.7,2.7,0,0,0,1.116.234,2.575,2.575,0,0,0,1.1-.234,2.8,2.8,0,0,0,.9-.684,3.244,3.244,0,0,0,.594-1.008,3.562,3.562,0,0,0,.216-1.26,3.509,3.509,0,0,0-.216-1.242,3.2,3.2,0,0,0-.594-1.026,2.591,2.591,0,0,0-.9-.666,2.421,2.421,0,0,0-1.1-.252,2.5,2.5,0,0,0-1.1.252,2.866,2.866,0,0,0-.882.684,3.376,3.376,0,0,0-.828,2.268Zm8.278,3.024a2.154,2.154,0,0,0,.9-.234,1.666,1.666,0,0,0,.612-.756A6.027,6.027,0,0,0,83,43.86q.18-.954.342-2.5l.306-2.772h6.21V48H87.893V40.206H85.409l-.234,1.728a30.284,30.284,0,0,1-.54,2.988,6.267,6.267,0,0,1-.738,1.872,2.457,2.457,0,0,1-1.08.972,4.109,4.109,0,0,1-1.548.324Zm11.493,3.582a1.95,1.95,0,0,0,.594.324,1.922,1.922,0,0,0,.576.09,1.014,1.014,0,0,0,.828-.522A5.6,5.6,0,0,0,95.282,48l-3.87-9.414h2.034l2.916,7.668,2.592-7.668h1.872L96.92,49.26a5.217,5.217,0,0,1-1.3,2.178,2.512,2.512,0,0,1-1.71.612,2.839,2.839,0,0,1-.756-.09,1.522,1.522,0,0,1-.594-.324ZM109,48h-1.944V44.436a5.145,5.145,0,0,1-.846.216,10.325,10.325,0,0,1-1.206.054,3.292,3.292,0,0,1-1.4-.27,2.748,2.748,0,0,1-.954-.72,3.083,3.083,0,0,1-.54-1.044,4.7,4.7,0,0,1-.162-1.242V38.586h1.926v2.5a2.236,2.236,0,0,0,.414,1.548,1.605,1.605,0,0,0,1.188.432,3.586,3.586,0,0,0,.99-.108,1.614,1.614,0,0,0,.594-.288V38.586H109Zm5.1.18a3.711,3.711,0,0,1-1.278-.216,3.332,3.332,0,0,1-1.008-.63,3.089,3.089,0,0,1-.666-.936,2.911,2.911,0,0,1-.234-1.17,2.522,2.522,0,0,1,.288-1.206,2.858,2.858,0,0,1,.81-.936,4.1,4.1,0,0,1,1.26-.612,5.751,5.751,0,0,1,1.62-.216,6.868,6.868,0,0,1,1.314.126,6.152,6.152,0,0,1,1.17.306v-.648a2.152,2.152,0,0,0-.594-1.62,2.315,2.315,0,0,0-1.71-.594,4.079,4.079,0,0,0-1.494.288,7.252,7.252,0,0,0-1.494.792l-.612-1.26a6.675,6.675,0,0,1,3.78-1.224,4.311,4.311,0,0,1,3.024.99,3.664,3.664,0,0,1,1.08,2.844v3.4q0,.63.522.648V48a5.065,5.065,0,0,1-.5.072q-.2.018-.4.018a1.308,1.308,0,0,1-.9-.288,1.253,1.253,0,0,1-.378-.738l-.054-.594a4.261,4.261,0,0,1-1.566,1.278A4.591,4.591,0,0,1,114.091,48.18Zm.54-1.458a3.6,3.6,0,0,0,1.35-.252,2.4,2.4,0,0,0,1.008-.738.913.913,0,0,0,.378-.684V43.806a5.942,5.942,0,0,0-1.08-.306,5.769,5.769,0,0,0-1.1-.108,3.027,3.027,0,0,0-1.746.468,1.389,1.389,0,0,0-.666,1.206,1.561,1.561,0,0,0,.522,1.188A1.92,1.92,0,0,0,114.631,46.722Zm11.582,1.458a5.111,5.111,0,0,1-2-.378,4.87,4.87,0,0,1-1.548-1.062,4.952,4.952,0,0,1-.99-1.548,5.294,5.294,0,0,1,0-3.744,4.9,4.9,0,0,1,.99-1.566,4.511,4.511,0,0,1,1.548-1.062,4.954,4.954,0,0,1,2.016-.4,4.782,4.782,0,0,1,1.98.4,4.661,4.661,0,0,1,1.53,1.062,4.287,4.287,0,0,1,.954,1.53,4.895,4.895,0,0,1,.342,1.818q0,.216-.018.414-.018.18-.036.306h-7.542a3.051,3.051,0,0,0,.918,2.016,2.967,2.967,0,0,0,.882.558,2.831,2.831,0,0,0,1.044.2,3.33,3.33,0,0,0,.774-.09,3.222,3.222,0,0,0,.72-.288,2.732,2.732,0,0,0,.576-.468,2.142,2.142,0,0,0,.4-.594l1.692.486a3.961,3.961,0,0,1-1.62,1.746A5,5,0,0,1,126.213,48.18Zm2.862-5.6a3.049,3.049,0,0,0-.306-1.1,2.6,2.6,0,0,0-.612-.846,2.692,2.692,0,0,0-.882-.558,2.947,2.947,0,0,0-2.124,0,2.741,2.741,0,0,0-.864.558,2.6,2.6,0,0,0-.612.846,3.3,3.3,0,0,0-.288,1.1ZM136.585,48h-1.944V40.3h-3.06v-1.71h8.064V40.3h-3.06Zm8.585.18a5.111,5.111,0,0,1-2-.378,4.87,4.87,0,0,1-1.548-1.062,4.952,4.952,0,0,1-.99-1.548,5.294,5.294,0,0,1,0-3.744,4.9,4.9,0,0,1,.99-1.566,4.511,4.511,0,0,1,1.548-1.062,4.954,4.954,0,0,1,2.016-.4,4.782,4.782,0,0,1,1.98.4,4.661,4.661,0,0,1,1.53,1.062,4.286,4.286,0,0,1,.954,1.53,4.894,4.894,0,0,1,.342,1.818q0,.216-.018.414-.018.18-.036.306H142.4a3.051,3.051,0,0,0,.918,2.016,2.967,2.967,0,0,0,.882.558,2.831,2.831,0,0,0,1.044.2,3.33,3.33,0,0,0,.774-.09,3.222,3.222,0,0,0,.72-.288,2.732,2.732,0,0,0,.576-.468,2.141,2.141,0,0,0,.4-.594l1.692.486a3.961,3.961,0,0,1-1.62,1.746A5,5,0,0,1,145.17,48.18Zm2.862-5.6a3.049,3.049,0,0,0-.306-1.1,2.6,2.6,0,0,0-.612-.846,2.692,2.692,0,0,0-.882-.558,2.947,2.947,0,0,0-2.124,0,2.741,2.741,0,0,0-.864.558,2.6,2.6,0,0,0-.612.846,3.3,3.3,0,0,0-.288,1.1Zm14.577-2.43H158.4V48h-1.944V38.586h6.156Zm5.372,8.028a4.954,4.954,0,0,1-2.016-.4,4.651,4.651,0,0,1-2.484-2.61,5.226,5.226,0,0,1-.342-1.872,5.083,5.083,0,0,1,.342-1.854,4.66,4.66,0,0,1,.972-1.566,4.776,4.776,0,0,1,3.528-1.458,4.782,4.782,0,0,1,1.98.4,4.661,4.661,0,0,1,1.53,1.062,4.52,4.52,0,0,1,.99,1.566,5.083,5.083,0,0,1,.342,1.854,5.226,5.226,0,0,1-.342,1.872,4.558,4.558,0,0,1-.99,1.548,4.661,4.661,0,0,1-1.53,1.062A4.782,4.782,0,0,1,167.981,48.18Zm-2.808-4.86a3.561,3.561,0,0,0,.216,1.26,3.244,3.244,0,0,0,.594,1.008,3,3,0,0,0,.882.666,2.7,2.7,0,0,0,1.116.234,2.575,2.575,0,0,0,1.1-.234,2.8,2.8,0,0,0,.9-.684,3.244,3.244,0,0,0,.594-1.008,3.562,3.562,0,0,0,.216-1.26,3.509,3.509,0,0,0-.216-1.242,3.2,3.2,0,0,0-.594-1.026,2.591,2.591,0,0,0-.9-.666,2.421,2.421,0,0,0-1.1-.252,2.5,2.5,0,0,0-1.1.252,2.866,2.866,0,0,0-.882.684,3.376,3.376,0,0,0-.828,2.268ZM178.46,48h-1.944V40.3h-3.06v-1.71h8.064V40.3h-3.06Zm8.549.18a4.954,4.954,0,0,1-2.016-.4,4.651,4.651,0,0,1-2.484-2.61,5.226,5.226,0,0,1-.342-1.872,5.083,5.083,0,0,1,.342-1.854,4.66,4.66,0,0,1,.972-1.566,4.776,4.776,0,0,1,3.528-1.458,4.782,4.782,0,0,1,1.98.4,4.661,4.661,0,0,1,1.53,1.062,4.52,4.52,0,0,1,.99,1.566,5.083,5.083,0,0,1,.342,1.854,5.226,5.226,0,0,1-.342,1.872,4.558,4.558,0,0,1-.99,1.548,4.661,4.661,0,0,1-1.53,1.062A4.782,4.782,0,0,1,187.009,48.18ZM184.2,43.32a3.561,3.561,0,0,0,.216,1.26,3.244,3.244,0,0,0,.594,1.008,3,3,0,0,0,.882.666,2.7,2.7,0,0,0,1.116.234,2.575,2.575,0,0,0,1.1-.234,2.8,2.8,0,0,0,.9-.684,3.244,3.244,0,0,0,.594-1.008,3.562,3.562,0,0,0,.216-1.26,3.509,3.509,0,0,0-.216-1.242,3.2,3.2,0,0,0-.594-1.026,2.591,2.591,0,0,0-.9-.666,2.421,2.421,0,0,0-1.1-.252,2.5,2.5,0,0,0-1.1.252,2.866,2.866,0,0,0-.882.684,3.376,3.376,0,0,0-.828,2.268Zm14.788-4.734a2.409,2.409,0,0,1,.936.18,2.091,2.091,0,0,1,.756.5,2.125,2.125,0,0,1,.5.738,2.363,2.363,0,0,1,.18.918,2.827,2.827,0,0,1-.306,1.242,1.937,1.937,0,0,1-1.044.918,2.34,2.34,0,0,1,1.26.828,2.6,2.6,0,0,1-.4,3.42,3.645,3.645,0,0,1-2.286.666h-4.734V38.586Zm-.864,3.978a1.306,1.306,0,0,0,.936-.324,1.277,1.277,0,0,0,.36-.972,1.367,1.367,0,0,0-.288-.882,1.106,1.106,0,0,0-.918-.36H195.8v2.538Zm.288,4a1.271,1.271,0,0,0,.99-.4,1.4,1.4,0,0,0,.378-.972,1.369,1.369,0,0,0-.36-.954,1.215,1.215,0,0,0-.972-.4H195.8V46.56Zm5.328-7.974h1.944V41.7h1.71a4.184,4.184,0,0,1,1.3.2,2.986,2.986,0,0,1,1.1.612,2.785,2.785,0,0,1,.738.99,3.1,3.1,0,0,1,.288,1.368,3.143,3.143,0,0,1-.288,1.386,2.827,2.827,0,0,1-.738.972,3.157,3.157,0,0,1-1.08.594,4.571,4.571,0,0,1-1.3.18h-3.672Zm8.046,0h1.962V48h-1.962Zm-4.5,7.812a1.592,1.592,0,0,0,1.116-.378,1.427,1.427,0,0,0,.432-1.134,1.476,1.476,0,0,0-.45-1.17,1.539,1.539,0,0,0-1.08-.414h-1.62v3.1Zm13.327,1.782a5.111,5.111,0,0,1-2-.378,4.87,4.87,0,0,1-1.548-1.062,4.952,4.952,0,0,1-.99-1.548,5.294,5.294,0,0,1,0-3.744,4.9,4.9,0,0,1,.99-1.566,4.511,4.511,0,0,1,1.548-1.062,4.954,4.954,0,0,1,2.016-.4,4.782,4.782,0,0,1,1.98.4,4.661,4.661,0,0,1,1.53,1.062,4.286,4.286,0,0,1,.954,1.53,4.894,4.894,0,0,1,.342,1.818q0,.216-.018.414-.018.18-.036.306h-7.542a3.051,3.051,0,0,0,.918,2.016,2.967,2.967,0,0,0,.882.558,2.831,2.831,0,0,0,1.044.2,3.33,3.33,0,0,0,.774-.09,3.222,3.222,0,0,0,.72-.288,2.732,2.732,0,0,0,.576-.468,2.141,2.141,0,0,0,.4-.594l1.692.486a3.961,3.961,0,0,1-1.62,1.746A5,5,0,0,1,220.614,48.18Zm2.862-5.6a3.049,3.049,0,0,0-.306-1.1,2.6,2.6,0,0,0-.612-.846,2.692,2.692,0,0,0-.882-.558,2.947,2.947,0,0,0-2.124,0,2.741,2.741,0,0,0-.864.558,2.6,2.6,0,0,0-.612.846,3.3,3.3,0,0,0-.288,1.1ZM35.8,60.092a3.692,3.692,0,0,0-2,1.116,4.466,4.466,0,0,0-.99,2.322,3.878,3.878,0,0,1,1.368-1.1,4.162,4.162,0,0,1,1.782-.378,3.761,3.761,0,0,1,1.638.36,3.93,3.93,0,0,1,1.332.954,4.6,4.6,0,0,1,.882,1.44,5.13,5.13,0,0,1-.018,3.636,4.151,4.151,0,0,1-.936,1.44,4.106,4.106,0,0,1-1.458.954,5.244,5.244,0,0,1-1.944.342,4.1,4.1,0,0,1-3.42-1.476,7.068,7.068,0,0,1-1.152-4.374,7.827,7.827,0,0,1,1.224-4.716A5.994,5.994,0,0,1,35.724,58.4l3.222-.738.216,1.656Zm-2.88,6.426a3.637,3.637,0,0,0,.2,1.224,3.229,3.229,0,0,0,.54.954,2.809,2.809,0,0,0,.828.63,2.585,2.585,0,0,0,1.062.216,2.51,2.51,0,0,0,1.854-.81,2.55,2.55,0,0,0,.522-.918,3.428,3.428,0,0,0,.2-1.188,3.224,3.224,0,0,0-.2-1.152,2.619,2.619,0,0,0-.558-.918,2.24,2.24,0,0,0-.828-.576,2.585,2.585,0,0,0-1.062-.216,2.654,2.654,0,0,0-1.044.2,2.276,2.276,0,0,0-.81.576,2.815,2.815,0,0,0-.522.864A3.3,3.3,0,0,0,32.916,66.518Zm7.954,2.826a2.154,2.154,0,0,0,.9-.234,1.666,1.666,0,0,0,.612-.756A6.027,6.027,0,0,0,42.8,66.86q.18-.954.342-2.5l.306-2.772h6.21V71H47.692V63.206H45.208l-.234,1.728a30.284,30.284,0,0,1-.54,2.988,6.267,6.267,0,0,1-.738,1.872,2.457,2.457,0,0,1-1.08.972,4.108,4.108,0,0,1-1.548.324ZM55.5,65.384a5.441,5.441,0,0,1,.486-1.656,4.54,4.54,0,0,1,.936-1.26,3.811,3.811,0,0,1,1.278-.792,4.319,4.319,0,0,1,1.584-.288,4.2,4.2,0,0,1,1.8.378,3.908,3.908,0,0,1,1.386,1.026,4.291,4.291,0,0,1,.9,1.566,5.753,5.753,0,0,1,.324,1.962,5.693,5.693,0,0,1-.342,2.034,4.341,4.341,0,0,1-.918,1.53,4.057,4.057,0,0,1-1.422.972,4.707,4.707,0,0,1-1.764.324,4.419,4.419,0,0,1-1.62-.288,3.862,3.862,0,0,1-1.3-.828,4.437,4.437,0,0,1-.918-1.3,5.635,5.635,0,0,1-.45-1.674H54.217V71H52.256V61.586h1.962v3.8Zm1.854.918A3.705,3.705,0,0,0,58,68.66a2.158,2.158,0,0,0,1.764.792,2.2,2.2,0,0,0,1.836-.828,3.719,3.719,0,0,0,.648-2.34,3.535,3.535,0,0,0-.684-2.34,2.208,2.208,0,0,0-1.8-.81A2.076,2.076,0,0,0,57.979,64,3.777,3.777,0,0,0,57.349,66.3Zm7.528,2.988H65.4a1.422,1.422,0,0,0,.72-.324,2.069,2.069,0,0,0,.486-.828,7.363,7.363,0,0,0,.36-1.458q.162-.918.306-2.322l.306-2.772h6.21v7.7h1.188v4.536H73.247V71h-6.7v2.826H64.877Zm6.966,0V63.206H69.359l-.234,1.728a21.914,21.914,0,0,1-.522,2.754,4.646,4.646,0,0,1-.7,1.6Zm7.584,1.89a3.711,3.711,0,0,1-1.278-.216,3.332,3.332,0,0,1-1.008-.63,3.089,3.089,0,0,1-.666-.936,2.911,2.911,0,0,1-.234-1.17,2.522,2.522,0,0,1,.288-1.206,2.858,2.858,0,0,1,.81-.936,4.1,4.1,0,0,1,1.26-.612,5.751,5.751,0,0,1,1.62-.216,6.868,6.868,0,0,1,1.314.126,6.152,6.152,0,0,1,1.17.306v-.648a2.152,2.152,0,0,0-.594-1.62,2.315,2.315,0,0,0-1.71-.594,4.079,4.079,0,0,0-1.494.288,7.251,7.251,0,0,0-1.494.792l-.612-1.26a6.675,6.675,0,0,1,3.78-1.224,4.311,4.311,0,0,1,3.024.99,3.664,3.664,0,0,1,1.08,2.844v3.4q0,.63.522.648V71a5.065,5.065,0,0,1-.5.072q-.2.018-.4.018a1.308,1.308,0,0,1-.9-.288,1.253,1.253,0,0,1-.378-.738l-.054-.594a4.261,4.261,0,0,1-1.566,1.278A4.591,4.591,0,0,1,79.428,71.18Zm.54-1.458a3.6,3.6,0,0,0,1.35-.252,2.4,2.4,0,0,0,1.008-.738.913.913,0,0,0,.378-.684V66.806a5.942,5.942,0,0,0-1.08-.306,5.769,5.769,0,0,0-1.1-.108,3.027,3.027,0,0,0-1.746.468,1.389,1.389,0,0,0-.666,1.206,1.561,1.561,0,0,0,.522,1.188A1.92,1.92,0,0,0,79.968,69.722Zm7.442,3.024.432-1.854h-.648V68.7h1.782v2.2l-.63,1.854Zm14.378-11.16h2.16l-3.69,4.572L104.217,71H102l-3.078-3.888h-.882V71H96.1V61.586h1.944V65.51h.738Zm7.669,9.594a4.954,4.954,0,0,1-2.016-.4,4.651,4.651,0,0,1-2.484-2.61,5.226,5.226,0,0,1-.342-1.872,5.083,5.083,0,0,1,.342-1.854,4.66,4.66,0,0,1,.972-1.566,4.776,4.776,0,0,1,3.528-1.458,4.782,4.782,0,0,1,1.98.4,4.661,4.661,0,0,1,1.53,1.062,4.521,4.521,0,0,1,.99,1.566A5.083,5.083,0,0,1,114.3,66.3a5.226,5.226,0,0,1-.342,1.872,4.559,4.559,0,0,1-.99,1.548,4.661,4.661,0,0,1-1.53,1.062A4.782,4.782,0,0,1,109.456,71.18Zm-2.808-4.86a3.562,3.562,0,0,0,.216,1.26,3.244,3.244,0,0,0,.594,1.008,3,3,0,0,0,.882.666,2.7,2.7,0,0,0,1.116.234,2.575,2.575,0,0,0,1.1-.234,2.8,2.8,0,0,0,.9-.684,3.244,3.244,0,0,0,.594-1.008,3.561,3.561,0,0,0,.216-1.26,3.509,3.509,0,0,0-.216-1.242,3.2,3.2,0,0,0-.594-1.026,2.591,2.591,0,0,0-.9-.666,2.421,2.421,0,0,0-1.1-.252,2.5,2.5,0,0,0-1.1.252,2.866,2.866,0,0,0-.882.684,3.376,3.376,0,0,0-.828,2.268ZM119.935,71h-1.944V63.3h-3.06v-1.71H123V63.3h-3.06Zm8.549.18a4.954,4.954,0,0,1-2.016-.4,4.651,4.651,0,0,1-2.484-2.61,5.226,5.226,0,0,1-.342-1.872,5.083,5.083,0,0,1,.342-1.854,4.66,4.66,0,0,1,.972-1.566,4.776,4.776,0,0,1,3.528-1.458,4.782,4.782,0,0,1,1.98.4,4.661,4.661,0,0,1,1.53,1.062,4.521,4.521,0,0,1,.99,1.566,5.083,5.083,0,0,1,.342,1.854,5.226,5.226,0,0,1-.342,1.872,4.559,4.559,0,0,1-.99,1.548,4.661,4.661,0,0,1-1.53,1.062A4.782,4.782,0,0,1,128.484,71.18Zm-2.808-4.86a3.562,3.562,0,0,0,.216,1.26,3.244,3.244,0,0,0,.594,1.008,3,3,0,0,0,.882.666,2.7,2.7,0,0,0,1.116.234,2.575,2.575,0,0,0,1.1-.234,2.8,2.8,0,0,0,.9-.684,3.244,3.244,0,0,0,.594-1.008,3.561,3.561,0,0,0,.216-1.26,3.509,3.509,0,0,0-.216-1.242,3.2,3.2,0,0,0-.594-1.026,2.591,2.591,0,0,0-.9-.666,2.421,2.421,0,0,0-1.1-.252,2.5,2.5,0,0,0-1.1.252,2.866,2.866,0,0,0-.882.684,3.376,3.376,0,0,0-.828,2.268Zm14.968,4.86a3.691,3.691,0,0,1-2-.54,4.031,4.031,0,0,1-1.368-1.4v5.6H135.3V61.586h1.746v1.692a4.14,4.14,0,0,1,1.386-1.35,3.786,3.786,0,0,1,1.944-.5,4,4,0,0,1,1.782.4,4.526,4.526,0,0,1,1.4,1.062,4.772,4.772,0,0,1,.918,1.548,5.083,5.083,0,0,1,.342,1.854,5.944,5.944,0,0,1-.306,1.926,4.869,4.869,0,0,1-.864,1.548,4.36,4.36,0,0,1-1.332,1.044A3.69,3.69,0,0,1,140.644,71.18ZM140,69.488a2.363,2.363,0,0,0,1.134-.27,2.71,2.71,0,0,0,.882-.72,3.193,3.193,0,0,0,.576-1.026,3.629,3.629,0,0,0,.2-1.188,3.221,3.221,0,0,0-.234-1.224,3.07,3.07,0,0,0-.612-1.008,2.755,2.755,0,0,0-2.088-.936,2.409,2.409,0,0,0-.792.144,3.145,3.145,0,0,0-.774.4,2.963,2.963,0,0,0-.63.594,1.891,1.891,0,0,0-.378.72v2.466a3.645,3.645,0,0,0,.468.81,3.6,3.6,0,0,0,.63.648,3.271,3.271,0,0,0,.774.432A2.3,2.3,0,0,0,140,69.488Zm6.82-7.9h1.944V64.7h1.71a4.185,4.185,0,0,1,1.3.2,2.986,2.986,0,0,1,1.1.612,2.785,2.785,0,0,1,.738.99,3.1,3.1,0,0,1,.288,1.368,3.143,3.143,0,0,1-.288,1.386,2.827,2.827,0,0,1-.738.972,3.157,3.157,0,0,1-1.08.594,4.57,4.57,0,0,1-1.3.18h-3.672Zm8.046,0h1.962V71h-1.962Zm-4.5,7.812a1.592,1.592,0,0,0,1.116-.378,1.427,1.427,0,0,0,.432-1.134,1.476,1.476,0,0,0-.45-1.17,1.539,1.539,0,0,0-1.08-.414h-1.62v3.1Zm13.327,1.782a5.111,5.111,0,0,1-2-.378,4.87,4.87,0,0,1-1.548-1.062,4.953,4.953,0,0,1-.99-1.548,5.294,5.294,0,0,1,0-3.744,4.9,4.9,0,0,1,.99-1.566,4.511,4.511,0,0,1,1.548-1.062,4.954,4.954,0,0,1,2.016-.4,4.782,4.782,0,0,1,1.98.4,4.661,4.661,0,0,1,1.53,1.062,4.287,4.287,0,0,1,.954,1.53,4.895,4.895,0,0,1,.342,1.818q0,.216-.018.414-.018.18-.036.306h-7.542a3.051,3.051,0,0,0,.918,2.016,2.967,2.967,0,0,0,.882.558,2.831,2.831,0,0,0,1.044.2,3.33,3.33,0,0,0,.774-.09,3.223,3.223,0,0,0,.72-.288,2.732,2.732,0,0,0,.576-.468,2.142,2.142,0,0,0,.4-.594l1.692.486a3.962,3.962,0,0,1-1.62,1.746A5,5,0,0,1,163.689,71.18Zm2.862-5.6a3.049,3.049,0,0,0-.306-1.1,2.6,2.6,0,0,0-.612-.846,2.692,2.692,0,0,0-.882-.558,2.947,2.947,0,0,0-2.124,0,2.741,2.741,0,0,0-.864.558,2.6,2.6,0,0,0-.612.846,3.3,3.3,0,0,0-.288,1.1ZM36.228,90.094l3.006-5.508h2V94H39.324V87.826l-2.574,4.7H35.724l-2.592-4.7V94H31.224V84.586H33.24ZM48.061,94.18a4.954,4.954,0,0,1-2.016-.4,4.651,4.651,0,0,1-2.484-2.61,5.226,5.226,0,0,1-.342-1.872,5.083,5.083,0,0,1,.342-1.854,4.66,4.66,0,0,1,.972-1.566,4.776,4.776,0,0,1,3.528-1.458,4.782,4.782,0,0,1,1.98.4,4.661,4.661,0,0,1,1.53,1.062,4.521,4.521,0,0,1,.99,1.566A5.083,5.083,0,0,1,52.9,89.3a5.226,5.226,0,0,1-.342,1.872,4.559,4.559,0,0,1-.99,1.548,4.661,4.661,0,0,1-1.53,1.062A4.782,4.782,0,0,1,48.061,94.18Zm-2.808-4.86a3.562,3.562,0,0,0,.216,1.26,3.244,3.244,0,0,0,.594,1.008,3,3,0,0,0,.882.666,2.7,2.7,0,0,0,1.116.234,2.575,2.575,0,0,0,1.1-.234,2.8,2.8,0,0,0,.9-.684,3.244,3.244,0,0,0,.594-1.008,3.561,3.561,0,0,0,.216-1.26,3.509,3.509,0,0,0-.216-1.242,3.2,3.2,0,0,0-.594-1.026,2.591,2.591,0,0,0-.9-.666,2.421,2.421,0,0,0-1.1-.252,2.5,2.5,0,0,0-1.1.252,2.866,2.866,0,0,0-.882.684,3.376,3.376,0,0,0-.828,2.268Zm10.726-4.734,2.34,3.96h1.224v-3.96h2.016v3.96h1.224l2.34-3.96h2.2l-2.88,4.572L67.607,94H65.339L63,90.112H61.541V94h-1.98V90.112h-1.44L55.781,94H53.5l3.15-4.842-2.88-4.572ZM73.066,94.18a5.111,5.111,0,0,1-2-.378A4.87,4.87,0,0,1,69.52,92.74a4.953,4.953,0,0,1-.99-1.548,5.294,5.294,0,0,1,0-3.744,4.9,4.9,0,0,1,.99-1.566,4.511,4.511,0,0,1,1.548-1.062,4.954,4.954,0,0,1,2.016-.4,4.782,4.782,0,0,1,1.98.4,4.661,4.661,0,0,1,1.53,1.062,4.286,4.286,0,0,1,.954,1.53,4.895,4.895,0,0,1,.342,1.818q0,.216-.018.414-.018.18-.036.306H70.294a3.051,3.051,0,0,0,.918,2.016,2.967,2.967,0,0,0,.882.558,2.831,2.831,0,0,0,1.044.2,3.33,3.33,0,0,0,.774-.09,3.223,3.223,0,0,0,.72-.288,2.732,2.732,0,0,0,.576-.468,2.142,2.142,0,0,0,.4-.594l1.692.486a3.961,3.961,0,0,1-1.62,1.746A5,5,0,0,1,73.066,94.18Zm2.862-5.6a3.049,3.049,0,0,0-.306-1.1,2.6,2.6,0,0,0-.612-.846,2.692,2.692,0,0,0-.882-.558,2.947,2.947,0,0,0-2.124,0,2.741,2.741,0,0,0-.864.558,2.6,2.6,0,0,0-.612.846,3.3,3.3,0,0,0-.288,1.1ZM83.439,94H81.5V86.3h-3.06v-1.71H86.5V86.3h-3.06Zm8.585.18a5.111,5.111,0,0,1-2-.378,4.87,4.87,0,0,1-1.548-1.062,4.952,4.952,0,0,1-.99-1.548,5.294,5.294,0,0,1,0-3.744,4.9,4.9,0,0,1,.99-1.566,4.511,4.511,0,0,1,1.548-1.062,4.954,4.954,0,0,1,2.016-.4,4.782,4.782,0,0,1,1.98.4,4.661,4.661,0,0,1,1.53,1.062,4.286,4.286,0,0,1,.954,1.53,4.894,4.894,0,0,1,.342,1.818q0,.216-.018.414-.018.18-.036.306H89.252a3.051,3.051,0,0,0,.918,2.016,2.967,2.967,0,0,0,.882.558,2.831,2.831,0,0,0,1.044.2,3.33,3.33,0,0,0,.774-.09,3.223,3.223,0,0,0,.72-.288,2.732,2.732,0,0,0,.576-.468,2.142,2.142,0,0,0,.4-.594l1.692.486a3.961,3.961,0,0,1-1.62,1.746A5,5,0,0,1,92.024,94.18Zm2.862-5.6a3.049,3.049,0,0,0-.306-1.1,2.6,2.6,0,0,0-.612-.846,2.692,2.692,0,0,0-.882-.558,2.947,2.947,0,0,0-2.124,0,2.741,2.741,0,0,0-.864.558,2.6,2.6,0,0,0-.612.846,3.3,3.3,0,0,0-.288,1.1Zm13.766,5.6a3.691,3.691,0,0,1-2-.54,4.031,4.031,0,0,1-1.368-1.4v5.6h-1.98V84.586h1.746v1.692a4.139,4.139,0,0,1,1.386-1.35,3.786,3.786,0,0,1,1.944-.5,4,4,0,0,1,1.782.4,4.526,4.526,0,0,1,1.4,1.062,4.772,4.772,0,0,1,.918,1.548,5.083,5.083,0,0,1,.342,1.854,5.944,5.944,0,0,1-.306,1.926,4.869,4.869,0,0,1-.864,1.548,4.36,4.36,0,0,1-1.332,1.044A3.69,3.69,0,0,1,108.652,94.18ZM108,92.488a2.363,2.363,0,0,0,1.134-.27,2.71,2.71,0,0,0,.882-.72,3.193,3.193,0,0,0,.576-1.026,3.63,3.63,0,0,0,.2-1.188,3.221,3.221,0,0,0-.234-1.224,3.07,3.07,0,0,0-.612-1.008,2.755,2.755,0,0,0-2.088-.936,2.409,2.409,0,0,0-.792.144,3.145,3.145,0,0,0-.774.4,2.963,2.963,0,0,0-.63.594,1.891,1.891,0,0,0-.378.72v2.466a3.645,3.645,0,0,0,.468.81,3.6,3.6,0,0,0,.63.648,3.272,3.272,0,0,0,.774.432A2.3,2.3,0,0,0,108,92.488Zm9.286,1.692a3.711,3.711,0,0,1-1.278-.216,3.332,3.332,0,0,1-1.008-.63,3.089,3.089,0,0,1-.666-.936,2.911,2.911,0,0,1-.234-1.17,2.522,2.522,0,0,1,.288-1.206,2.858,2.858,0,0,1,.81-.936,4.1,4.1,0,0,1,1.26-.612,5.751,5.751,0,0,1,1.62-.216,6.868,6.868,0,0,1,1.314.126,6.152,6.152,0,0,1,1.17.306v-.648a2.152,2.152,0,0,0-.594-1.62,2.315,2.315,0,0,0-1.71-.594,4.08,4.08,0,0,0-1.494.288,7.251,7.251,0,0,0-1.494.792l-.612-1.26a6.675,6.675,0,0,1,3.78-1.224,4.311,4.311,0,0,1,3.024.99,3.664,3.664,0,0,1,1.08,2.844v3.4q0,.63.522.648V94a5.065,5.065,0,0,1-.5.072q-.2.018-.4.018a1.308,1.308,0,0,1-.9-.288,1.253,1.253,0,0,1-.378-.738l-.054-.594a4.261,4.261,0,0,1-1.566,1.278A4.591,4.591,0,0,1,117.29,94.18Zm.54-1.458a3.6,3.6,0,0,0,1.35-.252,2.4,2.4,0,0,0,1.008-.738.913.913,0,0,0,.378-.684V89.806a5.942,5.942,0,0,0-1.08-.306,5.769,5.769,0,0,0-1.1-.108,3.027,3.027,0,0,0-1.746.468,1.389,1.389,0,0,0-.666,1.206,1.561,1.561,0,0,0,.522,1.188A1.92,1.92,0,0,0,117.83,92.722Zm6.812-7.146a4.175,4.175,0,0,1,1.35-.864,4.462,4.462,0,0,1,1.6-.288,3.873,3.873,0,0,1,1.152.162,2.651,2.651,0,0,1,.918.468,1.93,1.93,0,0,1,.612.738,2.185,2.185,0,0,1,.216.99,2.215,2.215,0,0,1-.432,1.368,1.686,1.686,0,0,1-1.17.666,2.485,2.485,0,0,1,1.584.828,2.421,2.421,0,0,1,.558,1.638,2.619,2.619,0,0,1-.27,1.188,2.778,2.778,0,0,1-.72.918,3.537,3.537,0,0,1-1.116.594,4.849,4.849,0,0,1-1.422.2,3.836,3.836,0,0,1-3.15-1.368l.99-1.314a2.435,2.435,0,0,0,2.088,1.008,1.963,1.963,0,0,0,1.242-.342,1.258,1.258,0,0,0,.45-1.044q0-1.566-2.25-1.566h-.666v-1.3h.666a2.228,2.228,0,0,0,1.35-.36,1.13,1.13,0,0,0,.486-.954.891.891,0,0,0-.36-.756,1.408,1.408,0,0,0-.936-.288,2.813,2.813,0,0,0-1.872.792Zm12.543,8.6a4.954,4.954,0,0,1-2.016-.4,4.651,4.651,0,0,1-2.484-2.61,5.226,5.226,0,0,1-.342-1.872,5.083,5.083,0,0,1,.342-1.854,4.66,4.66,0,0,1,.972-1.566,4.776,4.776,0,0,1,3.528-1.458,4.782,4.782,0,0,1,1.98.4,4.661,4.661,0,0,1,1.53,1.062,4.521,4.521,0,0,1,.99,1.566,5.083,5.083,0,0,1,.342,1.854,5.226,5.226,0,0,1-.342,1.872,4.559,4.559,0,0,1-.99,1.548,4.661,4.661,0,0,1-1.53,1.062A4.782,4.782,0,0,1,137.185,94.18Zm-2.808-4.86a3.562,3.562,0,0,0,.216,1.26,3.244,3.244,0,0,0,.594,1.008,3,3,0,0,0,.882.666,2.7,2.7,0,0,0,1.116.234,2.575,2.575,0,0,0,1.1-.234,2.8,2.8,0,0,0,.9-.684,3.244,3.244,0,0,0,.594-1.008,3.561,3.561,0,0,0,.216-1.26,3.509,3.509,0,0,0-.216-1.242,3.2,3.2,0,0,0-.594-1.026,2.591,2.591,0,0,0-.9-.666,2.421,2.421,0,0,0-1.1-.252,2.5,2.5,0,0,0-1.1.252,2.866,2.866,0,0,0-.882.684,3.376,3.376,0,0,0-.828,2.268Zm15.778-3.168h-4.212V94H144V84.586h6.156Zm7.052,8.028a3.691,3.691,0,0,1-2-.54,4.03,4.03,0,0,1-1.368-1.4v5.6h-1.98V84.586h1.746v1.692a4.14,4.14,0,0,1,1.386-1.35,3.786,3.786,0,0,1,1.944-.5,4,4,0,0,1,1.782.4,4.526,4.526,0,0,1,1.4,1.062,4.772,4.772,0,0,1,.918,1.548,5.083,5.083,0,0,1,.342,1.854,5.944,5.944,0,0,1-.306,1.926,4.869,4.869,0,0,1-.864,1.548,4.36,4.36,0,0,1-1.332,1.044A3.69,3.69,0,0,1,157.207,94.18Zm-.648-1.692a2.363,2.363,0,0,0,1.134-.27,2.71,2.71,0,0,0,.882-.72,3.193,3.193,0,0,0,.576-1.026,3.629,3.629,0,0,0,.2-1.188,3.221,3.221,0,0,0-.234-1.224,3.07,3.07,0,0,0-.612-1.008,2.755,2.755,0,0,0-2.088-.936,2.409,2.409,0,0,0-.792.144,3.145,3.145,0,0,0-.774.4,2.963,2.963,0,0,0-.63.594,1.891,1.891,0,0,0-.378.72v2.466a3.645,3.645,0,0,0,.468.81,3.6,3.6,0,0,0,.63.648,3.272,3.272,0,0,0,.774.432A2.3,2.3,0,0,0,156.559,92.488Zm11.049,1.692a5.111,5.111,0,0,1-2-.378,4.87,4.87,0,0,1-1.548-1.062,4.952,4.952,0,0,1-.99-1.548,5.294,5.294,0,0,1,0-3.744,4.9,4.9,0,0,1,.99-1.566,4.511,4.511,0,0,1,1.548-1.062,4.954,4.954,0,0,1,2.016-.4,4.782,4.782,0,0,1,1.98.4,4.661,4.661,0,0,1,1.53,1.062,4.286,4.286,0,0,1,.954,1.53,4.895,4.895,0,0,1,.342,1.818q0,.216-.018.414-.018.18-.036.306h-7.542a3.051,3.051,0,0,0,.918,2.016,2.967,2.967,0,0,0,.882.558,2.831,2.831,0,0,0,1.044.2,3.33,3.33,0,0,0,.774-.09,3.223,3.223,0,0,0,.72-.288,2.732,2.732,0,0,0,.576-.468,2.141,2.141,0,0,0,.4-.594l1.692.486a3.961,3.961,0,0,1-1.62,1.746A5,5,0,0,1,167.608,94.18Zm2.862-5.6a3.049,3.049,0,0,0-.306-1.1,2.6,2.6,0,0,0-.612-.846,2.692,2.692,0,0,0-.882-.558,2.947,2.947,0,0,0-2.124,0,2.741,2.741,0,0,0-.864.558,2.6,2.6,0,0,0-.612.846,3.3,3.3,0,0,0-.288,1.1ZM177.981,94h-1.944V86.3h-3.06v-1.71h8.064V86.3h-3.06Zm4.812-9.414h1.944V87.7h1.818a4.184,4.184,0,0,1,1.3.2,2.986,2.986,0,0,1,1.1.612,2.7,2.7,0,0,1,.756.99,3.1,3.1,0,0,1,.288,1.368,3.143,3.143,0,0,1-.288,1.386,2.827,2.827,0,0,1-.738.972,3.132,3.132,0,0,1-1.1.594,4.506,4.506,0,0,1-1.278.18h-3.8Zm3.672,7.812a1.633,1.633,0,0,0,1.116-.378,1.427,1.427,0,0,0,.432-1.134,1.476,1.476,0,0,0-.45-1.17,1.539,1.539,0,0,0-1.08-.414h-1.746v3.1Zm5.44,3.348.432-1.854h-.648V91.7h1.782v2.2l-.63,1.854ZM36.912,107.586h2.16l-3.69,4.572L39.342,117H37.128l-3.078-3.888h-.882V117H31.224v-9.414h1.944v3.924h.738Zm7.668,9.594a4.954,4.954,0,0,1-2.016-.4,4.651,4.651,0,0,1-2.484-2.61,5.226,5.226,0,0,1-.342-1.872,5.083,5.083,0,0,1,.342-1.854,4.66,4.66,0,0,1,.972-1.566,4.776,4.776,0,0,1,3.528-1.458,4.782,4.782,0,0,1,1.98.4,4.661,4.661,0,0,1,1.53,1.062,4.52,4.52,0,0,1,.99,1.566,5.083,5.083,0,0,1,.342,1.854,5.226,5.226,0,0,1-.342,1.872,4.559,4.559,0,0,1-.99,1.548,4.661,4.661,0,0,1-1.53,1.062A4.782,4.782,0,0,1,44.58,117.18Zm-2.808-4.86a3.561,3.561,0,0,0,.216,1.26,3.244,3.244,0,0,0,.594,1.008,3,3,0,0,0,.882.666,2.7,2.7,0,0,0,1.116.234,2.575,2.575,0,0,0,1.1-.234,2.8,2.8,0,0,0,.9-.684,3.244,3.244,0,0,0,.594-1.008,3.561,3.561,0,0,0,.216-1.26,3.509,3.509,0,0,0-.216-1.242,3.2,3.2,0,0,0-.594-1.026,2.591,2.591,0,0,0-.9-.666,2.421,2.421,0,0,0-1.1-.252,2.5,2.5,0,0,0-1.1.252,2.866,2.866,0,0,0-.882.684,3.376,3.376,0,0,0-.828,2.268Zm15.778-3.168H53.339V117H51.395v-9.414H57.55Zm-.619,6.138h.522a1.422,1.422,0,0,0,.72-.324,2.069,2.069,0,0,0,.486-.828,7.363,7.363,0,0,0,.36-1.458q.162-.918.306-2.322l.306-2.772h6.21v7.7H67.03v4.536H65.3V117h-6.7v2.826H56.932Zm6.966,0v-6.084H61.414l-.234,1.728a21.916,21.916,0,0,1-.522,2.754,4.646,4.646,0,0,1-.7,1.6Zm7.584,1.89a3.711,3.711,0,0,1-1.278-.216,3.332,3.332,0,0,1-1.008-.63,3.089,3.089,0,0,1-.666-.936,2.911,2.911,0,0,1-.234-1.17,2.522,2.522,0,0,1,.288-1.206,2.858,2.858,0,0,1,.81-.936,4.1,4.1,0,0,1,1.26-.612,5.751,5.751,0,0,1,1.62-.216,6.868,6.868,0,0,1,1.314.126,6.152,6.152,0,0,1,1.17.306v-.648a2.152,2.152,0,0,0-.594-1.62,2.315,2.315,0,0,0-1.71-.594,4.08,4.08,0,0,0-1.494.288,7.251,7.251,0,0,0-1.494.792l-.612-1.26a6.675,6.675,0,0,1,3.78-1.224,4.311,4.311,0,0,1,3.024.99,3.664,3.664,0,0,1,1.08,2.844v3.4q0,.63.522.648V117a5.065,5.065,0,0,1-.5.072q-.2.018-.4.018a1.308,1.308,0,0,1-.9-.288,1.253,1.253,0,0,1-.378-.738l-.054-.594a4.261,4.261,0,0,1-1.566,1.278A4.591,4.591,0,0,1,71.482,117.18Zm.54-1.458a3.6,3.6,0,0,0,1.35-.252,2.4,2.4,0,0,0,1.008-.738.913.913,0,0,0,.378-.684v-1.242a5.942,5.942,0,0,0-1.08-.306,5.769,5.769,0,0,0-1.1-.108,3.027,3.027,0,0,0-1.746.468,1.389,1.389,0,0,0-.666,1.206,1.561,1.561,0,0,0,.522,1.188A1.92,1.92,0,0,0,72.022,115.722Zm17.145-8.136a2.409,2.409,0,0,1,.936.18,2.091,2.091,0,0,1,.756.5,2.125,2.125,0,0,1,.5.738,2.363,2.363,0,0,1,.18.918,2.827,2.827,0,0,1-.306,1.242,1.937,1.937,0,0,1-1.044.918,2.34,2.34,0,0,1,1.26.828,2.6,2.6,0,0,1-.4,3.42,3.645,3.645,0,0,1-2.286.666H84.037v-9.414Zm-.864,3.978a1.306,1.306,0,0,0,.936-.324,1.277,1.277,0,0,0,.36-.972,1.367,1.367,0,0,0-.288-.882,1.106,1.106,0,0,0-.918-.36H85.981v2.538Zm.288,4a1.271,1.271,0,0,0,.99-.4,1.4,1.4,0,0,0,.378-.972,1.368,1.368,0,0,0-.36-.954,1.215,1.215,0,0,0-.972-.4H85.981v2.718Zm7.794,1.62a3.711,3.711,0,0,1-1.278-.216,3.332,3.332,0,0,1-1.008-.63,3.089,3.089,0,0,1-.666-.936,2.911,2.911,0,0,1-.234-1.17,2.522,2.522,0,0,1,.288-1.206,2.858,2.858,0,0,1,.81-.936,4.1,4.1,0,0,1,1.26-.612,5.751,5.751,0,0,1,1.62-.216,6.868,6.868,0,0,1,1.314.126,6.152,6.152,0,0,1,1.17.306v-.648a2.152,2.152,0,0,0-.594-1.62,2.315,2.315,0,0,0-1.71-.594,4.08,4.08,0,0,0-1.494.288,7.251,7.251,0,0,0-1.494.792l-.612-1.26a6.675,6.675,0,0,1,3.78-1.224,4.313,4.313,0,0,1,3.024.99,3.664,3.664,0,0,1,1.08,2.844v3.4q0,.63.522.648V117a5.065,5.065,0,0,1-.5.072q-.2.018-.4.018a1.308,1.308,0,0,1-.9-.288,1.257,1.257,0,0,1-.379-.738l-.054-.594a4.261,4.261,0,0,1-1.566,1.278A4.591,4.591,0,0,1,96.385,117.18Zm.54-1.458a3.6,3.6,0,0,0,1.35-.252,2.4,2.4,0,0,0,1.008-.738.913.913,0,0,0,.378-.684v-1.242a5.942,5.942,0,0,0-1.08-.306,5.769,5.769,0,0,0-1.1-.108,3.027,3.027,0,0,0-1.746.468,1.389,1.389,0,0,0-.666,1.206,1.561,1.561,0,0,0,.522,1.188A1.92,1.92,0,0,0,96.925,115.722Zm12.355-2.628,3.006-5.508h2V117h-1.908v-6.174l-2.574,4.7h-1.026l-2.592-4.7V117h-1.908v-9.414h2.016Zm12.356,5.832a1.95,1.95,0,0,0,.594.324,1.922,1.922,0,0,0,.576.09,1.014,1.014,0,0,0,.828-.522,5.6,5.6,0,0,0,.72-1.818l-3.87-9.414h2.034l2.916,7.668,2.592-7.668H129.9l-3.906,10.674a5.217,5.217,0,0,1-1.3,2.178,2.512,2.512,0,0,1-1.71.612,2.839,2.839,0,0,1-.756-.09,1.522,1.522,0,0,1-.594-.324Zm8.049-3.636h.522a1.422,1.422,0,0,0,.72-.324,2.069,2.069,0,0,0,.486-.828,7.363,7.363,0,0,0,.36-1.458q.162-.918.306-2.322l.306-2.772h6.21v7.7h1.188v4.536h-1.728V117h-6.7v2.826h-1.674Zm6.966,0v-6.084h-2.484l-.234,1.728a21.915,21.915,0,0,1-.522,2.754,4.646,4.646,0,0,1-.7,1.6Zm9.207,1.89a4.954,4.954,0,0,1-2.016-.4,4.651,4.651,0,0,1-2.484-2.61,5.226,5.226,0,0,1-.342-1.872,5.083,5.083,0,0,1,.342-1.854,4.66,4.66,0,0,1,.972-1.566,4.776,4.776,0,0,1,3.528-1.458,4.782,4.782,0,0,1,1.98.4,4.661,4.661,0,0,1,1.53,1.062,4.521,4.521,0,0,1,.99,1.566,5.083,5.083,0,0,1,.342,1.854,5.226,5.226,0,0,1-.342,1.872,4.559,4.559,0,0,1-.99,1.548,4.661,4.661,0,0,1-1.53,1.062A4.782,4.782,0,0,1,145.859,117.18Zm-2.808-4.86a3.562,3.562,0,0,0,.216,1.26,3.244,3.244,0,0,0,.594,1.008,3,3,0,0,0,.882.666,2.7,2.7,0,0,0,1.116.234,2.575,2.575,0,0,0,1.1-.234,2.8,2.8,0,0,0,.9-.684,3.244,3.244,0,0,0,.594-1.008,3.561,3.561,0,0,0,.216-1.26,3.509,3.509,0,0,0-.216-1.242,3.2,3.2,0,0,0-.594-1.026,2.591,2.591,0,0,0-.9-.666,2.421,2.421,0,0,0-1.1-.252,2.5,2.5,0,0,0-1.1.252,2.866,2.866,0,0,0-.882.684,3.376,3.376,0,0,0-.828,2.268Zm14.194-6.228a3.692,3.692,0,0,0-2,1.116,4.466,4.466,0,0,0-.99,2.322,3.878,3.878,0,0,1,1.368-1.1,4.162,4.162,0,0,1,1.782-.378,3.761,3.761,0,0,1,1.638.36,3.93,3.93,0,0,1,1.332.954,4.6,4.6,0,0,1,.882,1.44,5.13,5.13,0,0,1-.018,3.636,4.151,4.151,0,0,1-.936,1.44,4.106,4.106,0,0,1-1.458.954,5.244,5.244,0,0,1-1.944.342,4.1,4.1,0,0,1-3.42-1.476,7.068,7.068,0,0,1-1.152-4.374,7.827,7.827,0,0,1,1.224-4.716,5.994,5.994,0,0,1,3.618-2.214l3.222-.738.216,1.656Zm-2.88,6.426a3.637,3.637,0,0,0,.2,1.224,3.229,3.229,0,0,0,.54.954,2.81,2.81,0,0,0,.828.63,2.585,2.585,0,0,0,1.062.216,2.51,2.51,0,0,0,1.854-.81,2.55,2.55,0,0,0,.522-.918,3.427,3.427,0,0,0,.2-1.188,3.224,3.224,0,0,0-.2-1.152,2.619,2.619,0,0,0-.558-.918,2.24,2.24,0,0,0-.828-.576,2.585,2.585,0,0,0-1.062-.216,2.654,2.654,0,0,0-1.044.2,2.276,2.276,0,0,0-.81.576,2.815,2.815,0,0,0-.522.864A3.3,3.3,0,0,0,154.365,112.518Zm11.19-1.188h4.284v-3.744h1.944V117h-1.944v-4h-4.284v4h-1.944v-9.414h1.944Zm13.047,5.85a4.954,4.954,0,0,1-2.016-.4,4.651,4.651,0,0,1-2.484-2.61,5.226,5.226,0,0,1-.342-1.872,5.083,5.083,0,0,1,.342-1.854,4.66,4.66,0,0,1,.972-1.566,4.776,4.776,0,0,1,3.528-1.458,4.782,4.782,0,0,1,1.98.4,4.661,4.661,0,0,1,1.53,1.062,4.521,4.521,0,0,1,.99,1.566,5.083,5.083,0,0,1,.342,1.854,5.226,5.226,0,0,1-.342,1.872,4.559,4.559,0,0,1-.99,1.548,4.661,4.661,0,0,1-1.53,1.062A4.782,4.782,0,0,1,178.6,117.18Zm-2.808-4.86a3.562,3.562,0,0,0,.216,1.26,3.244,3.244,0,0,0,.594,1.008,3,3,0,0,0,.882.666,2.7,2.7,0,0,0,1.116.234,2.575,2.575,0,0,0,1.1-.234,2.8,2.8,0,0,0,.9-.684,3.244,3.244,0,0,0,.594-1.008,3.561,3.561,0,0,0,.216-1.26,3.509,3.509,0,0,0-.216-1.242,3.2,3.2,0,0,0-.594-1.026,2.591,2.591,0,0,0-.9-.666,2.421,2.421,0,0,0-1.1-.252,2.5,2.5,0,0,0-1.1.252,2.866,2.866,0,0,0-.882.684,3.376,3.376,0,0,0-.828,2.268Z" fill="#2f4152"/>
    </g>
    <g id="Frame_268" data-name="Frame 268" transform="translate(378 551)">
      <rect id="Прямоугольник_2" data-name="Прямоугольник 2" width="68" height="68" rx="34" transform="translate(0 2)" fill="#b24d97"/>
      <path id="Контур_6" data-name="Контур 6" d="M38.712,34.672a8.116,8.116,0,0,1,2.736,1.056,7.257,7.257,0,0,1,2.112,1.824A8.4,8.4,0,0,1,44.9,40.1a9.809,9.809,0,0,1,.48,3.12,9.1,9.1,0,0,1-.864,4.032,8.44,8.44,0,0,1-2.4,3.12,10.436,10.436,0,0,1-3.744,1.968,15.9,15.9,0,0,1-4.944.72A15.087,15.087,0,0,1,27,51.76a10.645,10.645,0,0,1-4.464-3.648l3.216-3.648a8.269,8.269,0,0,0,2.976,2.784,9.445,9.445,0,0,0,4.608,1.008,7.607,7.607,0,0,0,4.848-1.344,4.792,4.792,0,0,0,1.728-4.032,5.355,5.355,0,0,0-1.92-4.368,8.725,8.725,0,0,0-5.664-1.584h-1.3V32.8h1.44a7.359,7.359,0,0,0,4.944-1.488,4.925,4.925,0,0,0,1.728-3.84,3.788,3.788,0,0,0-1.536-3.36,6.668,6.668,0,0,0-3.984-1.1,8.641,8.641,0,0,0-4.32,1.056,7.729,7.729,0,0,0-2.976,3.024l-3.312-3.6a7.375,7.375,0,0,1,1.824-2.064,11.858,11.858,0,0,1,2.592-1.632A13.171,13.171,0,0,1,30.6,18.736a16.325,16.325,0,0,1,3.552-.384,13.772,13.772,0,0,1,4.272.624,10.411,10.411,0,0,1,3.36,1.728,7.446,7.446,0,0,1,2.208,2.688,7.925,7.925,0,0,1,.768,3.5,8.6,8.6,0,0,1-.432,2.736,7.9,7.9,0,0,1-1.248,2.352,6.452,6.452,0,0,1-4.368,2.688Z" fill="#fff"/>
    </g>
  </g>
</svg>
