<svg xmlns="http://www.w3.org/2000/svg" width="270" height="194" viewBox="0 0 270 194">
  <g id="Сгруппировать_1" data-name="Сгруппировать 1" transform="translate(-378 -226)">
    <g id="_1" data-name="1" transform="translate(378 268)">
      <path id="Контур_1" data-name="Контур 1" d="M0,50A50,50,0,0,1,50,0H270V102a50,50,0,0,1-50,50H0Z" fill="#ceebfb"/>
      <path id="Контур_2" data-name="Контур 2" d="M41.25,44.706a2.916,2.916,0,0,1-.324,1.386,3.1,3.1,0,0,1-.846,1.044,3.934,3.934,0,0,1-1.242.648,5.3,5.3,0,0,1-1.53.216h-6.1V35.22h6.588A2.522,2.522,0,0,1,39,35.508a2.953,2.953,0,0,1,.918.756,3.157,3.157,0,0,1,.576,1.044,3.308,3.308,0,0,1,.216,1.17,3.429,3.429,0,0,1-.486,1.764,2.876,2.876,0,0,1-1.35,1.206A3.184,3.184,0,0,1,40.6,42.636,3.3,3.3,0,0,1,41.25,44.706Zm-2.07-.378a2.017,2.017,0,0,0-.144-.756,1.919,1.919,0,0,0-.36-.63,1.594,1.594,0,0,0-.54-.432,1.548,1.548,0,0,0-.7-.162H33.222v3.906h4.086a1.882,1.882,0,0,0,.738-.144,2.107,2.107,0,0,0,.594-.414,2.063,2.063,0,0,0,.4-.612A2.017,2.017,0,0,0,39.18,44.328Zm-5.958-7.362v3.762H36.93a1.587,1.587,0,0,0,.684-.144,1.832,1.832,0,0,0,.558-.378,1.622,1.622,0,0,0,.378-.594,2.137,2.137,0,0,0-.324-2.106,1.5,1.5,0,0,0-1.188-.54ZM43.6,38.586h1.944V41.7h1.71a4.185,4.185,0,0,1,1.3.2,2.986,2.986,0,0,1,1.1.612,2.785,2.785,0,0,1,.738.99,3.1,3.1,0,0,1,.288,1.368,3.143,3.143,0,0,1-.288,1.386,2.827,2.827,0,0,1-.738.972,3.157,3.157,0,0,1-1.08.594,4.571,4.571,0,0,1-1.3.18H43.6Zm8.046,0h1.962V48H51.649Zm-4.5,7.812a1.592,1.592,0,0,0,1.116-.378,1.427,1.427,0,0,0,.432-1.134,1.476,1.476,0,0,0-.45-1.17,1.539,1.539,0,0,0-1.08-.414h-1.62v3.1Zm12.806-.108h.522a1.422,1.422,0,0,0,.72-.324,2.069,2.069,0,0,0,.486-.828,7.363,7.363,0,0,0,.36-1.458q.162-.918.306-2.322l.306-2.772h6.21v7.7h1.188v4.536H68.325V48h-6.7v2.826H59.955Zm6.966,0V40.206H64.437L64.2,41.934a21.914,21.914,0,0,1-.522,2.754,4.646,4.646,0,0,1-.7,1.6Zm9.243,1.89a5.111,5.111,0,0,1-2-.378,4.87,4.87,0,0,1-1.548-1.062,4.952,4.952,0,0,1-.99-1.548,5.294,5.294,0,0,1,0-3.744,4.9,4.9,0,0,1,.99-1.566,4.511,4.511,0,0,1,1.548-1.062,4.954,4.954,0,0,1,2.016-.4,4.782,4.782,0,0,1,1.98.4,4.661,4.661,0,0,1,1.53,1.062,4.287,4.287,0,0,1,.954,1.53,4.895,4.895,0,0,1,.342,1.818q0,.216-.018.414-.018.18-.036.306H73.392a3.051,3.051,0,0,0,.918,2.016,2.967,2.967,0,0,0,.882.558,2.831,2.831,0,0,0,1.044.2,3.33,3.33,0,0,0,.774-.09,3.222,3.222,0,0,0,.72-.288,2.732,2.732,0,0,0,.576-.468,2.142,2.142,0,0,0,.4-.594l1.692.486a3.961,3.961,0,0,1-1.62,1.746A5,5,0,0,1,76.164,48.18Zm2.862-5.6a3.049,3.049,0,0,0-.306-1.1,2.6,2.6,0,0,0-.612-.846,2.692,2.692,0,0,0-.882-.558,2.947,2.947,0,0,0-2.124,0,2.741,2.741,0,0,0-.864.558,2.6,2.6,0,0,0-.612.846,3.3,3.3,0,0,0-.288,1.1Zm2.5,3.762a2.154,2.154,0,0,0,.9-.234,1.666,1.666,0,0,0,.612-.756,6.028,6.028,0,0,0,.414-1.494q.18-.954.342-2.5l.306-2.772h6.21V48H88.35V40.206H85.866l-.234,1.728a30.284,30.284,0,0,1-.54,2.988,6.267,6.267,0,0,1-.738,1.872,2.457,2.457,0,0,1-1.08.972,4.109,4.109,0,0,1-1.548.324ZM95.4,48.18a3.711,3.711,0,0,1-1.278-.216,3.332,3.332,0,0,1-1.008-.63,3.089,3.089,0,0,1-.666-.936,2.911,2.911,0,0,1-.234-1.17,2.522,2.522,0,0,1,.288-1.206,2.858,2.858,0,0,1,.81-.936,4.1,4.1,0,0,1,1.26-.612,5.751,5.751,0,0,1,1.62-.216,6.868,6.868,0,0,1,1.314.126,6.152,6.152,0,0,1,1.17.306v-.648a2.152,2.152,0,0,0-.594-1.62,2.315,2.315,0,0,0-1.71-.594,4.079,4.079,0,0,0-1.494.288,7.252,7.252,0,0,0-1.494.792l-.612-1.26a6.675,6.675,0,0,1,3.78-1.224,4.311,4.311,0,0,1,3.024.99,3.664,3.664,0,0,1,1.08,2.844v3.4q0,.63.522.648V48a5.065,5.065,0,0,1-.5.072q-.2.018-.4.018a1.308,1.308,0,0,1-.9-.288A1.253,1.253,0,0,1,99,47.064l-.054-.594a4.261,4.261,0,0,1-1.566,1.278A4.591,4.591,0,0,1,95.4,48.18Zm.54-1.458a3.6,3.6,0,0,0,1.35-.252,2.4,2.4,0,0,0,1.008-.738.913.913,0,0,0,.378-.684V43.806a5.942,5.942,0,0,0-1.08-.306,5.769,5.769,0,0,0-1.1-.108,3.027,3.027,0,0,0-1.746.468,1.389,1.389,0,0,0-.666,1.206,1.561,1.561,0,0,0,.522,1.188A1.92,1.92,0,0,0,95.937,46.722Zm11.582,1.458a5.111,5.111,0,0,1-2-.378,4.87,4.87,0,0,1-1.548-1.062,4.952,4.952,0,0,1-.99-1.548,5.294,5.294,0,0,1,0-3.744,4.9,4.9,0,0,1,.99-1.566,4.511,4.511,0,0,1,1.548-1.062,4.954,4.954,0,0,1,2.016-.4,4.782,4.782,0,0,1,1.98.4,4.661,4.661,0,0,1,1.53,1.062,4.286,4.286,0,0,1,.954,1.53,4.895,4.895,0,0,1,.342,1.818q0,.216-.018.414-.018.18-.036.306h-7.542a3.051,3.051,0,0,0,.918,2.016,2.967,2.967,0,0,0,.882.558,2.831,2.831,0,0,0,1.044.2,3.33,3.33,0,0,0,.774-.09,3.222,3.222,0,0,0,.72-.288,2.732,2.732,0,0,0,.576-.468,2.142,2.142,0,0,0,.4-.594l1.692.486a3.961,3.961,0,0,1-1.62,1.746A5,5,0,0,1,107.519,48.18Zm2.862-5.6a3.049,3.049,0,0,0-.306-1.1,2.6,2.6,0,0,0-.612-.846,2.692,2.692,0,0,0-.882-.558,2.947,2.947,0,0,0-2.124,0,2.741,2.741,0,0,0-.864.558,2.6,2.6,0,0,0-.612.846,3.3,3.3,0,0,0-.288,1.1ZM117.891,48h-1.944V40.3h-3.06v-1.71h8.064V40.3h-3.06Zm8.585.18a5.111,5.111,0,0,1-2-.378,4.87,4.87,0,0,1-1.548-1.062,4.952,4.952,0,0,1-.99-1.548,5.294,5.294,0,0,1,0-3.744,4.9,4.9,0,0,1,.99-1.566,4.511,4.511,0,0,1,1.548-1.062,4.954,4.954,0,0,1,2.016-.4,4.782,4.782,0,0,1,1.98.4A4.661,4.661,0,0,1,130,39.882a4.286,4.286,0,0,1,.954,1.53,4.894,4.894,0,0,1,.342,1.818q0,.216-.018.414-.018.18-.036.306H123.7a3.051,3.051,0,0,0,.918,2.016,2.967,2.967,0,0,0,.882.558,2.831,2.831,0,0,0,1.044.2,3.33,3.33,0,0,0,.774-.09,3.222,3.222,0,0,0,.72-.288,2.732,2.732,0,0,0,.576-.468,2.142,2.142,0,0,0,.4-.594l1.692.486a3.961,3.961,0,0,1-1.62,1.746A5,5,0,0,1,126.476,48.18Zm2.862-5.6a3.049,3.049,0,0,0-.306-1.1,2.6,2.6,0,0,0-.612-.846,2.692,2.692,0,0,0-.882-.558,2.947,2.947,0,0,0-2.124,0,2.741,2.741,0,0,0-.864.558,2.6,2.6,0,0,0-.612.846,3.3,3.3,0,0,0-.288,1.1Zm7.881-3.006a4.175,4.175,0,0,1,1.35-.864,4.462,4.462,0,0,1,1.6-.288,3.873,3.873,0,0,1,1.152.162,2.651,2.651,0,0,1,.918.468,1.929,1.929,0,0,1,.612.738,2.185,2.185,0,0,1,.216.99,2.215,2.215,0,0,1-.432,1.368,1.686,1.686,0,0,1-1.17.666,2.485,2.485,0,0,1,1.584.828,2.421,2.421,0,0,1,.558,1.638,2.619,2.619,0,0,1-.27,1.188,2.778,2.778,0,0,1-.72.918,3.536,3.536,0,0,1-1.116.594,4.849,4.849,0,0,1-1.422.2,3.836,3.836,0,0,1-3.15-1.368l.99-1.314a2.435,2.435,0,0,0,2.088,1.008,1.963,1.963,0,0,0,1.242-.342,1.258,1.258,0,0,0,.45-1.044q0-1.566-2.25-1.566h-.666v-1.3h.666a2.228,2.228,0,0,0,1.35-.36,1.13,1.13,0,0,0,.486-.954.891.891,0,0,0-.36-.756,1.408,1.408,0,0,0-.936-.288,2.813,2.813,0,0,0-1.872.792Zm10.815,8.6a3.711,3.711,0,0,1-1.278-.216,3.332,3.332,0,0,1-1.008-.63,3.089,3.089,0,0,1-.666-.936,2.911,2.911,0,0,1-.234-1.17,2.522,2.522,0,0,1,.288-1.206,2.858,2.858,0,0,1,.81-.936,4.1,4.1,0,0,1,1.26-.612,5.751,5.751,0,0,1,1.62-.216,6.868,6.868,0,0,1,1.314.126,6.152,6.152,0,0,1,1.17.306v-.648a2.152,2.152,0,0,0-.594-1.62,2.315,2.315,0,0,0-1.71-.594,4.08,4.08,0,0,0-1.494.288,7.251,7.251,0,0,0-1.494.792l-.612-1.26a6.675,6.675,0,0,1,3.78-1.224,4.311,4.311,0,0,1,3.024.99,3.664,3.664,0,0,1,1.08,2.844v3.4q0,.63.522.648V48a5.065,5.065,0,0,1-.5.072q-.2.018-.4.018a1.308,1.308,0,0,1-.9-.288,1.253,1.253,0,0,1-.378-.738l-.054-.594a4.261,4.261,0,0,1-1.566,1.278A4.592,4.592,0,0,1,148.034,48.18Zm.54-1.458a3.6,3.6,0,0,0,1.35-.252,2.4,2.4,0,0,0,1.008-.738.913.913,0,0,0,.378-.684V43.806a5.942,5.942,0,0,0-1.08-.306,5.769,5.769,0,0,0-1.1-.108,3.027,3.027,0,0,0-1.746.468,1.389,1.389,0,0,0-.666,1.206,1.561,1.561,0,0,0,.522,1.188A1.92,1.92,0,0,0,148.574,46.722Zm13.039-8.136h2.16l-3.69,4.572L164.043,48h-2.214l-3.078-3.888h-.882V48h-1.944V38.586h1.944V42.51h.738Zm6.2,9.594a3.711,3.711,0,0,1-1.278-.216,3.332,3.332,0,0,1-1.008-.63,3.089,3.089,0,0,1-.666-.936,2.911,2.911,0,0,1-.234-1.17,2.522,2.522,0,0,1,.288-1.206,2.858,2.858,0,0,1,.81-.936,4.1,4.1,0,0,1,1.26-.612,5.751,5.751,0,0,1,1.62-.216,6.868,6.868,0,0,1,1.314.126,6.153,6.153,0,0,1,1.17.306v-.648a2.152,2.152,0,0,0-.594-1.62,2.315,2.315,0,0,0-1.71-.594,4.08,4.08,0,0,0-1.494.288,7.252,7.252,0,0,0-1.494.792l-.612-1.26a6.675,6.675,0,0,1,3.78-1.224,4.311,4.311,0,0,1,3.024.99,3.664,3.664,0,0,1,1.08,2.844v3.4q0,.63.522.648V48a5.065,5.065,0,0,1-.5.072q-.2.018-.4.018a1.308,1.308,0,0,1-.9-.288,1.253,1.253,0,0,1-.378-.738l-.054-.594a4.261,4.261,0,0,1-1.566,1.278A4.591,4.591,0,0,1,167.817,48.18Zm.54-1.458a3.6,3.6,0,0,0,1.35-.252,2.4,2.4,0,0,0,1.008-.738.913.913,0,0,0,.378-.684V43.806a5.942,5.942,0,0,0-1.08-.306,5.769,5.769,0,0,0-1.1-.108,3.027,3.027,0,0,0-1.746.468,1.389,1.389,0,0,0-.666,1.206,1.561,1.561,0,0,0,.522,1.188A1.92,1.92,0,0,0,168.357,46.722Zm6.812-7.146a4.175,4.175,0,0,1,1.35-.864,4.462,4.462,0,0,1,1.6-.288,3.873,3.873,0,0,1,1.152.162,2.651,2.651,0,0,1,.918.468,1.929,1.929,0,0,1,.612.738,2.185,2.185,0,0,1,.216.99,2.216,2.216,0,0,1-.432,1.368,1.686,1.686,0,0,1-1.17.666,2.485,2.485,0,0,1,1.584.828,2.421,2.421,0,0,1,.558,1.638,2.619,2.619,0,0,1-.27,1.188,2.778,2.778,0,0,1-.72.918,3.536,3.536,0,0,1-1.116.594,4.849,4.849,0,0,1-1.422.2,3.836,3.836,0,0,1-3.15-1.368l.99-1.314a2.435,2.435,0,0,0,2.088,1.008,1.963,1.963,0,0,0,1.242-.342,1.258,1.258,0,0,0,.45-1.044q0-1.566-2.25-1.566h-.666v-1.3h.666a2.228,2.228,0,0,0,1.35-.36,1.13,1.13,0,0,0,.486-.954.891.891,0,0,0-.36-.756,1.408,1.408,0,0,0-.936-.288,2.813,2.813,0,0,0-1.872.792Zm14.92,2.754h4.284V38.586h1.944V48h-1.944V44h-4.284v4h-1.944V38.586h1.944Zm11.32,5.85a3.711,3.711,0,0,1-1.278-.216,3.332,3.332,0,0,1-1.008-.63,3.089,3.089,0,0,1-.666-.936,2.911,2.911,0,0,1-.234-1.17,2.522,2.522,0,0,1,.288-1.206,2.858,2.858,0,0,1,.81-.936,4.1,4.1,0,0,1,1.26-.612,5.751,5.751,0,0,1,1.62-.216,6.868,6.868,0,0,1,1.314.126,6.152,6.152,0,0,1,1.17.306v-.648a2.152,2.152,0,0,0-.594-1.62,2.315,2.315,0,0,0-1.71-.594,4.08,4.08,0,0,0-1.494.288,7.251,7.251,0,0,0-1.494.792l-.612-1.26a6.675,6.675,0,0,1,3.78-1.224,4.311,4.311,0,0,1,3.024.99,3.664,3.664,0,0,1,1.08,2.844v3.4q0,.63.522.648V48a5.065,5.065,0,0,1-.5.072q-.2.018-.4.018a1.308,1.308,0,0,1-.9-.288,1.253,1.253,0,0,1-.378-.738l-.054-.594a4.261,4.261,0,0,1-1.566,1.278A4.592,4.592,0,0,1,201.409,48.18Zm.54-1.458a3.6,3.6,0,0,0,1.35-.252,2.4,2.4,0,0,0,1.008-.738.913.913,0,0,0,.378-.684V43.806a5.942,5.942,0,0,0-1.08-.306,5.769,5.769,0,0,0-1.1-.108,3.027,3.027,0,0,0-1.746.468,1.389,1.389,0,0,0-.666,1.206,1.561,1.561,0,0,0,.522,1.188A1.92,1.92,0,0,0,201.949,46.722ZM35.418,71.18a4.954,4.954,0,0,1-2.016-.4,4.651,4.651,0,0,1-2.484-2.61,5.226,5.226,0,0,1-.342-1.872,5.083,5.083,0,0,1,.342-1.854,4.66,4.66,0,0,1,.972-1.566,4.776,4.776,0,0,1,3.528-1.458,4.782,4.782,0,0,1,1.98.4,4.661,4.661,0,0,1,1.53,1.062,4.521,4.521,0,0,1,.99,1.566A5.083,5.083,0,0,1,40.26,66.3a5.226,5.226,0,0,1-.342,1.872,4.559,4.559,0,0,1-.99,1.548,4.661,4.661,0,0,1-1.53,1.062A4.782,4.782,0,0,1,35.418,71.18ZM32.61,66.32a3.561,3.561,0,0,0,.216,1.26,3.244,3.244,0,0,0,.594,1.008,3,3,0,0,0,.882.666,2.7,2.7,0,0,0,1.116.234,2.575,2.575,0,0,0,1.1-.234,2.8,2.8,0,0,0,.9-.684,3.244,3.244,0,0,0,.594-1.008,3.561,3.561,0,0,0,.216-1.26,3.509,3.509,0,0,0-.216-1.242,3.2,3.2,0,0,0-.594-1.026,2.591,2.591,0,0,0-.9-.666,2.421,2.421,0,0,0-1.1-.252,2.5,2.5,0,0,0-1.1.252,2.866,2.866,0,0,0-.882.684,3.376,3.376,0,0,0-.828,2.268Zm8.974-.036a5.132,5.132,0,0,1,.342-1.872,4.7,4.7,0,0,1,.972-1.548,4.638,4.638,0,0,1,1.548-1.044,4.954,4.954,0,0,1,2.016-.4,4.65,4.65,0,0,1,2.5.648,3.981,3.981,0,0,1,1.584,1.692l-1.926.612a2.409,2.409,0,0,0-.918-.918,2.456,2.456,0,0,0-1.278-.342,2.7,2.7,0,0,0-1.116.234,2.64,2.64,0,0,0-.882.666,3.025,3.025,0,0,0-.594.99,3.615,3.615,0,0,0-.216,1.278,3.711,3.711,0,0,0,.216,1.278,3.538,3.538,0,0,0,.612,1.008,3.088,3.088,0,0,0,.9.684,2.654,2.654,0,0,0,1.1.234,2.959,2.959,0,0,0,.72-.09,2.656,2.656,0,0,0,.648-.288,2.27,2.27,0,0,0,.522-.414,1.5,1.5,0,0,0,.342-.5l1.944.576a3.9,3.9,0,0,1-1.566,1.746,5.047,5.047,0,0,1-6.138-.792,4.932,4.932,0,0,1-1.332-3.438Zm12.827-.954h4.284V61.586h1.944V71H58.695V67H54.411v4H52.467V61.586h1.944Zm13.047,5.85a4.954,4.954,0,0,1-2.016-.4,4.651,4.651,0,0,1-2.484-2.61,5.226,5.226,0,0,1-.342-1.872,5.083,5.083,0,0,1,.342-1.854,4.66,4.66,0,0,1,.972-1.566,4.776,4.776,0,0,1,3.528-1.458,4.782,4.782,0,0,1,1.98.4,4.661,4.661,0,0,1,1.53,1.062,4.521,4.521,0,0,1,.99,1.566A5.083,5.083,0,0,1,72.3,66.3a5.226,5.226,0,0,1-.342,1.872,4.559,4.559,0,0,1-.99,1.548,4.661,4.661,0,0,1-1.53,1.062A4.782,4.782,0,0,1,67.458,71.18ZM64.65,66.32a3.562,3.562,0,0,0,.216,1.26,3.244,3.244,0,0,0,.594,1.008,3,3,0,0,0,.882.666,2.7,2.7,0,0,0,1.116.234,2.575,2.575,0,0,0,1.1-.234,2.8,2.8,0,0,0,.9-.684,3.244,3.244,0,0,0,.594-1.008,3.561,3.561,0,0,0,.216-1.26,3.509,3.509,0,0,0-.216-1.242,3.2,3.2,0,0,0-.594-1.026,2.591,2.591,0,0,0-.9-.666,2.421,2.421,0,0,0-1.1-.252,2.5,2.5,0,0,0-1.1.252,2.866,2.866,0,0,0-.882.684,3.376,3.376,0,0,0-.828,2.268Zm14.788-4.734a2.409,2.409,0,0,1,.936.18,2.091,2.091,0,0,1,.756.5,2.125,2.125,0,0,1,.5.738,2.363,2.363,0,0,1,.18.918,2.827,2.827,0,0,1-.306,1.242,1.937,1.937,0,0,1-1.044.918,2.34,2.34,0,0,1,1.26.828,2.6,2.6,0,0,1-.4,3.42A3.645,3.645,0,0,1,79.042,71H74.308V61.586Zm-.864,3.978a1.306,1.306,0,0,0,.936-.324,1.277,1.277,0,0,0,.36-.972,1.367,1.367,0,0,0-.288-.882,1.106,1.106,0,0,0-.918-.36H76.252v2.538Zm.288,4a1.271,1.271,0,0,0,.99-.4,1.4,1.4,0,0,0,.378-.972,1.368,1.368,0,0,0-.36-.954,1.215,1.215,0,0,0-.972-.4H76.252V69.56Zm9.558,1.62a5.111,5.111,0,0,1-2-.378,4.87,4.87,0,0,1-1.548-1.062,4.952,4.952,0,0,1-.99-1.548,5.294,5.294,0,0,1,0-3.744,4.9,4.9,0,0,1,.99-1.566,4.511,4.511,0,0,1,1.548-1.062,4.954,4.954,0,0,1,2.016-.4,4.782,4.782,0,0,1,1.98.4,4.661,4.661,0,0,1,1.53,1.062,4.286,4.286,0,0,1,.954,1.53,4.894,4.894,0,0,1,.342,1.818q0,.216-.018.414-.018.18-.036.306H85.648a3.051,3.051,0,0,0,.918,2.016,2.967,2.967,0,0,0,.882.558,2.831,2.831,0,0,0,1.044.2,3.33,3.33,0,0,0,.774-.09,3.223,3.223,0,0,0,.72-.288,2.732,2.732,0,0,0,.576-.468,2.142,2.142,0,0,0,.4-.594l1.692.486a3.961,3.961,0,0,1-1.62,1.746A5,5,0,0,1,88.42,71.18Zm2.862-5.6a3.049,3.049,0,0,0-.306-1.1,2.6,2.6,0,0,0-.612-.846,2.692,2.692,0,0,0-.882-.558,2.947,2.947,0,0,0-2.124,0,2.741,2.741,0,0,0-.864.558,2.6,2.6,0,0,0-.612.846,3.3,3.3,0,0,0-.288,1.1Zm10.365-.252h4.284V61.586h1.944V71h-1.944V67h-4.284v4H99.7V61.586h1.944Zm11.319,5.85a3.711,3.711,0,0,1-1.278-.216,3.332,3.332,0,0,1-1.008-.63,3.089,3.089,0,0,1-.666-.936,2.911,2.911,0,0,1-.234-1.17,2.522,2.522,0,0,1,.288-1.206,2.858,2.858,0,0,1,.81-.936,4.1,4.1,0,0,1,1.26-.612,5.751,5.751,0,0,1,1.62-.216,6.868,6.868,0,0,1,1.314.126,6.152,6.152,0,0,1,1.17.306v-.648a2.152,2.152,0,0,0-.594-1.62,2.315,2.315,0,0,0-1.71-.594,4.079,4.079,0,0,0-1.494.288,7.252,7.252,0,0,0-1.494.792l-.612-1.26a6.675,6.675,0,0,1,3.78-1.224,4.311,4.311,0,0,1,3.024.99,3.664,3.664,0,0,1,1.08,2.844v3.4q0,.63.522.648V71a5.065,5.065,0,0,1-.5.072q-.2.018-.4.018a1.308,1.308,0,0,1-.9-.288,1.253,1.253,0,0,1-.378-.738l-.054-.594a4.261,4.261,0,0,1-1.566,1.278A4.591,4.591,0,0,1,112.966,71.18Zm.54-1.458a3.6,3.6,0,0,0,1.35-.252,2.4,2.4,0,0,0,1.008-.738.913.913,0,0,0,.378-.684V66.806a5.942,5.942,0,0,0-1.08-.306,5.769,5.769,0,0,0-1.1-.108,3.027,3.027,0,0,0-1.746.468,1.389,1.389,0,0,0-.666,1.206,1.561,1.561,0,0,0,.522,1.188A1.92,1.92,0,0,0,113.506,69.722Zm6.812-7.146a4.175,4.175,0,0,1,1.35-.864,4.462,4.462,0,0,1,1.6-.288,3.874,3.874,0,0,1,1.152.162,2.651,2.651,0,0,1,.918.468,1.93,1.93,0,0,1,.612.738,2.185,2.185,0,0,1,.216.99,2.216,2.216,0,0,1-.432,1.368,1.686,1.686,0,0,1-1.17.666,2.485,2.485,0,0,1,1.584.828,2.421,2.421,0,0,1,.558,1.638,2.619,2.619,0,0,1-.27,1.188,2.778,2.778,0,0,1-.72.918,3.536,3.536,0,0,1-1.116.594,4.849,4.849,0,0,1-1.422.2,3.836,3.836,0,0,1-3.15-1.368l.99-1.314a2.435,2.435,0,0,0,2.088,1.008,1.963,1.963,0,0,0,1.242-.342,1.258,1.258,0,0,0,.45-1.044q0-1.566-2.25-1.566h-.666v-1.3h.666a2.228,2.228,0,0,0,1.35-.36,1.13,1.13,0,0,0,.486-.954.891.891,0,0,0-.36-.756,1.408,1.408,0,0,0-.936-.288,2.813,2.813,0,0,0-1.872.792Zm10.293,2.754H134.9V61.586h1.944V71H134.9V67h-4.284v4h-1.944V61.586h1.944Zm11.319,5.85a3.711,3.711,0,0,1-1.278-.216,3.332,3.332,0,0,1-1.008-.63,3.089,3.089,0,0,1-.666-.936,2.911,2.911,0,0,1-.234-1.17,2.522,2.522,0,0,1,.288-1.206,2.858,2.858,0,0,1,.81-.936,4.1,4.1,0,0,1,1.26-.612,5.751,5.751,0,0,1,1.62-.216,6.868,6.868,0,0,1,1.314.126,6.151,6.151,0,0,1,1.17.306v-.648a2.152,2.152,0,0,0-.594-1.62,2.315,2.315,0,0,0-1.71-.594,4.079,4.079,0,0,0-1.494.288,7.251,7.251,0,0,0-1.494.792l-.612-1.26a6.675,6.675,0,0,1,3.78-1.224,4.311,4.311,0,0,1,3.024.99,3.664,3.664,0,0,1,1.08,2.844v3.4q0,.63.522.648V71a5.064,5.064,0,0,1-.5.072q-.2.018-.4.018a1.308,1.308,0,0,1-.9-.288,1.253,1.253,0,0,1-.378-.738l-.054-.594a4.261,4.261,0,0,1-1.566,1.278A4.591,4.591,0,0,1,141.93,71.18Zm.54-1.458a3.6,3.6,0,0,0,1.35-.252,2.4,2.4,0,0,0,1.008-.738.913.913,0,0,0,.378-.684V66.806a5.943,5.943,0,0,0-1.08-.306,5.77,5.77,0,0,0-1.1-.108,3.027,3.027,0,0,0-1.746.468,1.389,1.389,0,0,0-.666,1.206,1.561,1.561,0,0,0,.522,1.188A1.92,1.92,0,0,0,142.47,69.722ZM156.32,71h-1.944V67.436a5.146,5.146,0,0,1-.846.216,10.324,10.324,0,0,1-1.206.054,3.292,3.292,0,0,1-1.4-.27,2.748,2.748,0,0,1-.954-.72,3.083,3.083,0,0,1-.54-1.044,4.7,4.7,0,0,1-.162-1.242V61.586h1.926v2.5a2.236,2.236,0,0,0,.414,1.548,1.605,1.605,0,0,0,1.188.432,3.586,3.586,0,0,0,.99-.108,1.614,1.614,0,0,0,.594-.288V61.586h1.944Zm6.859.18a5.111,5.111,0,0,1-2-.378,4.87,4.87,0,0,1-1.548-1.062,4.952,4.952,0,0,1-.99-1.548,5.294,5.294,0,0,1,0-3.744,4.9,4.9,0,0,1,.99-1.566,4.511,4.511,0,0,1,1.548-1.062,4.954,4.954,0,0,1,2.016-.4,4.782,4.782,0,0,1,1.98.4,4.661,4.661,0,0,1,1.53,1.062,4.286,4.286,0,0,1,.954,1.53A4.894,4.894,0,0,1,168,66.23q0,.216-.018.414-.018.18-.036.306h-7.542a3.051,3.051,0,0,0,.918,2.016,2.967,2.967,0,0,0,.882.558,2.831,2.831,0,0,0,1.044.2,3.33,3.33,0,0,0,.774-.09,3.222,3.222,0,0,0,.72-.288,2.732,2.732,0,0,0,.576-.468,2.141,2.141,0,0,0,.4-.594l1.692.486a3.961,3.961,0,0,1-1.62,1.746A5,5,0,0,1,163.179,71.18Zm2.862-5.6a3.049,3.049,0,0,0-.306-1.1,2.6,2.6,0,0,0-.612-.846,2.692,2.692,0,0,0-.882-.558,2.947,2.947,0,0,0-2.124,0,2.741,2.741,0,0,0-.864.558,2.6,2.6,0,0,0-.612.846,3.3,3.3,0,0,0-.288,1.1Zm5.737-.252h4.284V61.586h1.944V71h-1.944V67h-4.284v4h-1.944V61.586h1.944Zm10.8,2.862,4.824-6.606h1.512V71h-1.944V64.538L182.233,71h-1.6V61.586h1.944ZM198.733,57.86a1.979,1.979,0,0,1-.81,1.638,3.986,3.986,0,0,1-4.068,0,2.026,2.026,0,0,1-.828-1.638h1.134a1.2,1.2,0,0,0,.468,1.008,2.457,2.457,0,0,0,1.26.27,2.315,2.315,0,0,0,1.224-.27,1.22,1.22,0,0,0,.5-1.008Zm-5.238,10.332,4.824-6.606h1.512V71h-1.944V64.538L193.153,71h-1.6V61.586h1.944ZM36.39,84.586a2.409,2.409,0,0,1,.936.18,2.091,2.091,0,0,1,.756.5,2.125,2.125,0,0,1,.5.738,2.363,2.363,0,0,1,.18.918,2.827,2.827,0,0,1-.306,1.242,1.937,1.937,0,0,1-1.044.918,2.34,2.34,0,0,1,1.26.828,2.6,2.6,0,0,1-.4,3.42A3.645,3.645,0,0,1,35.994,94H31.26V84.586Zm-.864,3.978a1.306,1.306,0,0,0,.936-.324,1.277,1.277,0,0,0,.36-.972,1.367,1.367,0,0,0-.288-.882,1.106,1.106,0,0,0-.918-.36H33.2v2.538Zm.288,4a1.271,1.271,0,0,0,.99-.4,1.4,1.4,0,0,0,.378-.972,1.368,1.368,0,0,0-.36-.954,1.215,1.215,0,0,0-.972-.4H33.2V92.56Zm10.674,1.62a3.691,3.691,0,0,1-2-.54,4.031,4.031,0,0,1-1.368-1.4v5.6h-1.98V84.586h1.746v1.692a4.139,4.139,0,0,1,1.386-1.35,3.786,3.786,0,0,1,1.944-.5,4,4,0,0,1,1.782.4,4.526,4.526,0,0,1,1.4,1.062,4.772,4.772,0,0,1,.918,1.548,5.083,5.083,0,0,1,.342,1.854,5.944,5.944,0,0,1-.306,1.926,4.869,4.869,0,0,1-.864,1.548A4.36,4.36,0,0,1,48.162,93.8,3.69,3.69,0,0,1,46.488,94.18Zm-.648-1.692a2.363,2.363,0,0,0,1.134-.27,2.71,2.71,0,0,0,.882-.72,3.193,3.193,0,0,0,.576-1.026,3.629,3.629,0,0,0,.2-1.188A3.221,3.221,0,0,0,48.4,88.06a3.07,3.07,0,0,0-.612-1.008,2.755,2.755,0,0,0-2.088-.936,2.409,2.409,0,0,0-.792.144,3.145,3.145,0,0,0-.774.4,2.963,2.963,0,0,0-.63.594,1.891,1.891,0,0,0-.378.72v2.466a3.645,3.645,0,0,0,.468.81,3.6,3.6,0,0,0,.63.648,3.272,3.272,0,0,0,.774.432A2.3,2.3,0,0,0,45.84,92.488Zm9.286,1.692a3.711,3.711,0,0,1-1.278-.216,3.332,3.332,0,0,1-1.008-.63,3.089,3.089,0,0,1-.666-.936,2.911,2.911,0,0,1-.234-1.17,2.522,2.522,0,0,1,.288-1.206,2.858,2.858,0,0,1,.81-.936,4.1,4.1,0,0,1,1.26-.612,5.751,5.751,0,0,1,1.62-.216,6.868,6.868,0,0,1,1.314.126,6.152,6.152,0,0,1,1.17.306v-.648a2.152,2.152,0,0,0-.594-1.62,2.315,2.315,0,0,0-1.71-.594,4.08,4.08,0,0,0-1.494.288,7.251,7.251,0,0,0-1.494.792l-.612-1.26a6.675,6.675,0,0,1,3.78-1.224,4.311,4.311,0,0,1,3.024.99,3.664,3.664,0,0,1,1.08,2.844v3.4q0,.63.522.648V94a5.065,5.065,0,0,1-.5.072q-.2.018-.4.018a1.308,1.308,0,0,1-.9-.288,1.253,1.253,0,0,1-.378-.738l-.054-.594a4.261,4.261,0,0,1-1.566,1.278A4.591,4.591,0,0,1,55.126,94.18Zm.54-1.458a3.6,3.6,0,0,0,1.35-.252,2.4,2.4,0,0,0,1.008-.738.913.913,0,0,0,.378-.684V89.806a5.942,5.942,0,0,0-1.08-.306,5.769,5.769,0,0,0-1.1-.108,3.027,3.027,0,0,0-1.746.468,1.389,1.389,0,0,0-.666,1.206,1.561,1.561,0,0,0,.522,1.188A1.92,1.92,0,0,0,55.666,92.722ZM69.516,94H67.572V90.436a5.146,5.146,0,0,1-.846.216,10.324,10.324,0,0,1-1.206.054,3.292,3.292,0,0,1-1.4-.27,2.748,2.748,0,0,1-.954-.72,3.083,3.083,0,0,1-.54-1.044,4.7,4.7,0,0,1-.162-1.242V84.586h1.926v2.5a2.236,2.236,0,0,0,.414,1.548,1.605,1.605,0,0,0,1.188.432,3.586,3.586,0,0,0,.99-.108,1.614,1.614,0,0,0,.594-.288V84.586h1.944Zm5.1.18a3.711,3.711,0,0,1-1.278-.216,3.332,3.332,0,0,1-1.008-.63,3.089,3.089,0,0,1-.666-.936,2.911,2.911,0,0,1-.234-1.17,2.522,2.522,0,0,1,.288-1.206,2.858,2.858,0,0,1,.81-.936,4.1,4.1,0,0,1,1.26-.612,5.751,5.751,0,0,1,1.62-.216,6.868,6.868,0,0,1,1.314.126,6.152,6.152,0,0,1,1.17.306v-.648a2.152,2.152,0,0,0-.594-1.62,2.315,2.315,0,0,0-1.71-.594,4.08,4.08,0,0,0-1.494.288,7.251,7.251,0,0,0-1.494.792l-.612-1.26a6.675,6.675,0,0,1,3.78-1.224,4.311,4.311,0,0,1,3.024.99,3.664,3.664,0,0,1,1.08,2.844v3.4q0,.63.522.648V94a5.065,5.065,0,0,1-.5.072q-.2.018-.4.018a1.308,1.308,0,0,1-.9-.288,1.253,1.253,0,0,1-.378-.738l-.054-.594a4.261,4.261,0,0,1-1.566,1.278A4.591,4.591,0,0,1,74.611,94.18Zm.54-1.458a3.6,3.6,0,0,0,1.35-.252,2.4,2.4,0,0,0,1.008-.738.913.913,0,0,0,.378-.684V89.806a5.942,5.942,0,0,0-1.08-.306,5.769,5.769,0,0,0-1.1-.108,3.027,3.027,0,0,0-1.746.468,1.389,1.389,0,0,0-.666,1.206,1.561,1.561,0,0,0,.522,1.188A1.92,1.92,0,0,0,75.151,92.722Z" fill="#2f4152"/>
    </g>
    <g id="Frame_266" data-name="Frame 266" transform="translate(404 226)">
      <rect id="Прямоугольник_1" data-name="Прямоугольник 1" width="68" height="68" rx="34" fill="#b24d97"/>
      <path id="Контур_3" data-name="Контур 3" d="M44.456,43.248V48H26.12V43.248h6.816V26.5a5.687,5.687,0,0,1-1.344,1.2,15.1,15.1,0,0,1-2.016,1.152,18.162,18.162,0,0,1-2.3.912,7.966,7.966,0,0,1-2.112.336V25.152a5.387,5.387,0,0,0,2.208-.576,16.441,16.441,0,0,0,2.448-1.344A16.479,16.479,0,0,0,31.88,21.7a4.243,4.243,0,0,0,1.056-1.1H38.36V43.248Z" fill="#fff"/>
    </g>
  </g>
</svg>
