<svg xmlns="http://www.w3.org/2000/svg" width="270" height="174" viewBox="0 0 270 174">
  <g id="block2" transform="translate(-355 -324)">
    <g id="_2" data-name="2" transform="translate(355 369)">
      <path id="Контур_1" data-name="Контур 1" d="M0,50A50,50,0,0,1,50,0H270V79a50,50,0,0,1-50,50H0Z" fill="#ceebfb"/>
      <path id="Контур_2" data-name="Контур 2" d="M42.222,48V38.8l-3.8,6.966H37.308L33.492,38.8V48H31.476V35.22h2.16l4.23,7.812L42.1,35.22h2.16V48Zm4.932-9.414H49.1V41.7h1.71a4.185,4.185,0,0,1,1.3.2,2.986,2.986,0,0,1,1.1.612,2.785,2.785,0,0,1,.738.99,3.1,3.1,0,0,1,.288,1.368,3.143,3.143,0,0,1-.288,1.386,2.827,2.827,0,0,1-.738.972,3.157,3.157,0,0,1-1.08.594,4.571,4.571,0,0,1-1.3.18H47.154Zm8.046,0h1.962V48H55.2ZM50.7,46.4a1.592,1.592,0,0,0,1.116-.378,1.427,1.427,0,0,0,.432-1.134,1.476,1.476,0,0,0-.45-1.17,1.539,1.539,0,0,0-1.08-.414H49.1v3.1ZM69,37.092a3.692,3.692,0,0,0-2,1.116,4.466,4.466,0,0,0-.99,2.322,3.877,3.877,0,0,1,1.368-1.1,4.162,4.162,0,0,1,1.782-.378,3.761,3.761,0,0,1,1.638.36,3.93,3.93,0,0,1,1.332.954,4.6,4.6,0,0,1,.882,1.44,5.13,5.13,0,0,1-.018,3.636,4.151,4.151,0,0,1-.936,1.44,4.106,4.106,0,0,1-1.458.954,5.244,5.244,0,0,1-1.944.342,4.1,4.1,0,0,1-3.42-1.476,7.068,7.068,0,0,1-1.152-4.374,7.827,7.827,0,0,1,1.224-4.716A5.994,5.994,0,0,1,68.924,35.4l3.222-.738.216,1.656Zm-2.88,6.426a3.637,3.637,0,0,0,.2,1.224,3.229,3.229,0,0,0,.54.954,2.81,2.81,0,0,0,.828.63,2.585,2.585,0,0,0,1.062.216,2.51,2.51,0,0,0,1.854-.81,2.55,2.55,0,0,0,.522-.918,3.428,3.428,0,0,0,.2-1.188,3.225,3.225,0,0,0-.2-1.152,2.619,2.619,0,0,0-.558-.918,2.24,2.24,0,0,0-.828-.576,2.585,2.585,0,0,0-1.062-.216,2.654,2.654,0,0,0-1.044.2,2.276,2.276,0,0,0-.81.576,2.815,2.815,0,0,0-.522.864A3.3,3.3,0,0,0,66.116,43.518ZM79.592,48.18a5.111,5.111,0,0,1-2-.378,4.87,4.87,0,0,1-1.548-1.062,4.952,4.952,0,0,1-.99-1.548,5.294,5.294,0,0,1,0-3.744,4.9,4.9,0,0,1,.99-1.566,4.511,4.511,0,0,1,1.548-1.062,4.954,4.954,0,0,1,2.016-.4,4.782,4.782,0,0,1,1.98.4,4.661,4.661,0,0,1,1.53,1.062,4.286,4.286,0,0,1,.954,1.53,4.894,4.894,0,0,1,.342,1.818q0,.216-.018.414-.018.18-.036.306H76.82a3.051,3.051,0,0,0,.918,2.016,2.967,2.967,0,0,0,.882.558,2.831,2.831,0,0,0,1.044.2,3.33,3.33,0,0,0,.774-.09,3.222,3.222,0,0,0,.72-.288,2.732,2.732,0,0,0,.576-.468,2.142,2.142,0,0,0,.4-.594l1.692.486a3.961,3.961,0,0,1-1.62,1.746A5,5,0,0,1,79.592,48.18Zm2.862-5.6a3.049,3.049,0,0,0-.306-1.1,2.6,2.6,0,0,0-.612-.846,2.692,2.692,0,0,0-.882-.558,2.947,2.947,0,0,0-2.124,0,2.741,2.741,0,0,0-.864.558,2.6,2.6,0,0,0-.612.846,3.3,3.3,0,0,0-.288,1.1Zm3.145.7a5.132,5.132,0,0,1,.342-1.872,4.7,4.7,0,0,1,.972-1.548,4.638,4.638,0,0,1,1.548-1.044,4.954,4.954,0,0,1,2.016-.4,4.65,4.65,0,0,1,2.5.648,3.982,3.982,0,0,1,1.584,1.692l-1.926.612a2.409,2.409,0,0,0-.918-.918,2.456,2.456,0,0,0-1.278-.342,2.7,2.7,0,0,0-1.116.234,2.64,2.64,0,0,0-.882.666,3.025,3.025,0,0,0-.594.99,3.615,3.615,0,0,0-.216,1.278,3.711,3.711,0,0,0,.216,1.278,3.538,3.538,0,0,0,.612,1.008,3.088,3.088,0,0,0,.9.684,2.655,2.655,0,0,0,1.1.234,2.959,2.959,0,0,0,.72-.09,2.656,2.656,0,0,0,.648-.288,2.27,2.27,0,0,0,.522-.414,1.5,1.5,0,0,0,.342-.5l1.944.576a3.9,3.9,0,0,1-1.566,1.746,5.047,5.047,0,0,1-6.138-.792A4.932,4.932,0,0,1,85.6,43.284ZM104.384,48H102.44V40.3H98.426V48H96.482V38.586h7.9Zm1.515-1.656a2.154,2.154,0,0,0,.9-.234,1.666,1.666,0,0,0,.612-.756,6.027,6.027,0,0,0,.414-1.494q.18-.954.342-2.5l.306-2.772h6.21V48h-1.962V40.206h-2.484L110,41.934a30.284,30.284,0,0,1-.54,2.988,6.266,6.266,0,0,1-.738,1.872,2.457,2.457,0,0,1-1.08.972,4.109,4.109,0,0,1-1.548.324Zm13.87,1.836a3.711,3.711,0,0,1-1.278-.216,3.332,3.332,0,0,1-1.008-.63,3.089,3.089,0,0,1-.666-.936,2.911,2.911,0,0,1-.234-1.17,2.522,2.522,0,0,1,.288-1.206,2.858,2.858,0,0,1,.81-.936,4.1,4.1,0,0,1,1.26-.612,5.751,5.751,0,0,1,1.62-.216,6.868,6.868,0,0,1,1.314.126,6.152,6.152,0,0,1,1.17.306v-.648a2.152,2.152,0,0,0-.594-1.62,2.315,2.315,0,0,0-1.71-.594,4.079,4.079,0,0,0-1.494.288,7.251,7.251,0,0,0-1.494.792l-.612-1.26a6.675,6.675,0,0,1,3.78-1.224,4.311,4.311,0,0,1,3.024.99,3.664,3.664,0,0,1,1.08,2.844v3.4q0,.63.522.648V48a5.065,5.065,0,0,1-.5.072q-.2.018-.4.018a1.308,1.308,0,0,1-.9-.288,1.253,1.253,0,0,1-.378-.738l-.054-.594a4.261,4.261,0,0,1-1.566,1.278A4.591,4.591,0,0,1,119.769,48.18Zm.54-1.458a3.6,3.6,0,0,0,1.35-.252,2.4,2.4,0,0,0,1.008-.738.913.913,0,0,0,.378-.684V43.806a5.942,5.942,0,0,0-1.08-.306,5.769,5.769,0,0,0-1.1-.108,3.027,3.027,0,0,0-1.746.468,1.389,1.389,0,0,0-.666,1.206,1.561,1.561,0,0,0,.522,1.188A1.92,1.92,0,0,0,120.309,46.722ZM131.519,48h-1.944V40.3h-3.06v-1.71h8.064V40.3h-3.06Zm6.756-5.67h4.284V38.586H144.5V48h-1.944V44h-4.284v4h-1.944V38.586h1.944Zm13.047,5.85a4.954,4.954,0,0,1-2.016-.4,4.651,4.651,0,0,1-2.484-2.61,5.226,5.226,0,0,1-.342-1.872,5.083,5.083,0,0,1,.342-1.854,4.659,4.659,0,0,1,.972-1.566,4.776,4.776,0,0,1,3.528-1.458,4.782,4.782,0,0,1,1.98.4,4.661,4.661,0,0,1,1.53,1.062,4.521,4.521,0,0,1,.99,1.566,5.083,5.083,0,0,1,.342,1.854,5.226,5.226,0,0,1-.342,1.872,4.559,4.559,0,0,1-.99,1.548,4.661,4.661,0,0,1-1.53,1.062A4.782,4.782,0,0,1,151.322,48.18Zm-2.808-4.86a3.562,3.562,0,0,0,.216,1.26,3.244,3.244,0,0,0,.594,1.008,3,3,0,0,0,.882.666,2.7,2.7,0,0,0,1.116.234,2.575,2.575,0,0,0,1.1-.234,2.8,2.8,0,0,0,.9-.684,3.244,3.244,0,0,0,.594-1.008,3.562,3.562,0,0,0,.216-1.26,3.509,3.509,0,0,0-.216-1.242,3.2,3.2,0,0,0-.594-1.026,2.591,2.591,0,0,0-.9-.666,2.421,2.421,0,0,0-1.1-.252,2.5,2.5,0,0,0-1.1.252,2.866,2.866,0,0,0-.882.684,3.376,3.376,0,0,0-.828,2.268ZM30.306,69.29h.522a1.422,1.422,0,0,0,.72-.324,2.069,2.069,0,0,0,.486-.828,7.363,7.363,0,0,0,.36-1.458q.162-.918.306-2.322l.306-2.772h6.21v7.7H40.4v4.536H38.676V71h-6.7v2.826H30.306Zm6.966,0V63.206H34.788l-.234,1.728a21.916,21.916,0,0,1-.522,2.754,4.646,4.646,0,0,1-.7,1.6Zm9.207,1.89a4.954,4.954,0,0,1-2.016-.4,4.651,4.651,0,0,1-2.484-2.61,5.226,5.226,0,0,1-.342-1.872,5.083,5.083,0,0,1,.342-1.854,4.66,4.66,0,0,1,.972-1.566,4.776,4.776,0,0,1,3.528-1.458,4.782,4.782,0,0,1,1.98.4,4.661,4.661,0,0,1,1.53,1.062,4.521,4.521,0,0,1,.99,1.566,5.083,5.083,0,0,1,.342,1.854,5.226,5.226,0,0,1-.342,1.872,4.559,4.559,0,0,1-.99,1.548,4.661,4.661,0,0,1-1.53,1.062A4.782,4.782,0,0,1,46.479,71.18Zm-2.808-4.86a3.561,3.561,0,0,0,.216,1.26,3.244,3.244,0,0,0,.594,1.008,3,3,0,0,0,.882.666,2.7,2.7,0,0,0,1.116.234,2.575,2.575,0,0,0,1.1-.234,2.8,2.8,0,0,0,.9-.684,3.244,3.244,0,0,0,.594-1.008,3.561,3.561,0,0,0,.216-1.26,3.509,3.509,0,0,0-.216-1.242,3.2,3.2,0,0,0-.594-1.026,2.591,2.591,0,0,0-.9-.666,2.421,2.421,0,0,0-1.1-.252,2.5,2.5,0,0,0-1.1.252,2.866,2.866,0,0,0-.882.684,3.376,3.376,0,0,0-.828,2.268Zm8.974-.036a5.132,5.132,0,0,1,.342-1.872,4.7,4.7,0,0,1,.972-1.548,4.638,4.638,0,0,1,1.548-1.044,4.954,4.954,0,0,1,2.016-.4,4.65,4.65,0,0,1,2.5.648,3.981,3.981,0,0,1,1.584,1.692l-1.926.612a2.409,2.409,0,0,0-.918-.918,2.456,2.456,0,0,0-1.278-.342,2.7,2.7,0,0,0-1.116.234,2.64,2.64,0,0,0-.882.666,3.025,3.025,0,0,0-.594.99,3.615,3.615,0,0,0-.216,1.278,3.711,3.711,0,0,0,.216,1.278,3.538,3.538,0,0,0,.612,1.008,3.088,3.088,0,0,0,.9.684,2.654,2.654,0,0,0,1.1.234,2.959,2.959,0,0,0,.72-.09,2.656,2.656,0,0,0,.648-.288A2.27,2.27,0,0,0,59.4,68.7a1.5,1.5,0,0,0,.342-.5l1.944.576a3.9,3.9,0,0,1-1.566,1.746,5.047,5.047,0,0,1-6.138-.792,4.932,4.932,0,0,1-1.332-3.438ZM67.65,71H65.706V63.3h-3.06v-1.71H70.71V63.3H67.65Zm7.1.18a3.711,3.711,0,0,1-1.278-.216,3.332,3.332,0,0,1-1.008-.63A3.089,3.089,0,0,1,71.8,69.4a2.911,2.911,0,0,1-.234-1.17,2.522,2.522,0,0,1,.288-1.206,2.858,2.858,0,0,1,.81-.936,4.1,4.1,0,0,1,1.26-.612,5.751,5.751,0,0,1,1.62-.216,6.868,6.868,0,0,1,1.314.126,6.152,6.152,0,0,1,1.17.306v-.648a2.152,2.152,0,0,0-.594-1.62,2.315,2.315,0,0,0-1.71-.594,4.08,4.08,0,0,0-1.494.288,7.251,7.251,0,0,0-1.494.792l-.612-1.26a6.675,6.675,0,0,1,3.78-1.224,4.311,4.311,0,0,1,3.024.99,3.664,3.664,0,0,1,1.08,2.844v3.4q0,.63.522.648V71a5.065,5.065,0,0,1-.5.072q-.2.018-.4.018a1.308,1.308,0,0,1-.9-.288,1.253,1.253,0,0,1-.378-.738L78.3,69.47a4.261,4.261,0,0,1-1.566,1.278A4.591,4.591,0,0,1,74.752,71.18Zm.54-1.458a3.6,3.6,0,0,0,1.35-.252,2.4,2.4,0,0,0,1.008-.738.913.913,0,0,0,.378-.684V66.806a5.942,5.942,0,0,0-1.08-.306,5.769,5.769,0,0,0-1.1-.108,3.027,3.027,0,0,0-1.746.468,1.389,1.389,0,0,0-.666,1.206,1.561,1.561,0,0,0,.522,1.188A1.92,1.92,0,0,0,75.292,69.722ZM87.81,61.586a2.409,2.409,0,0,1,.936.18,2.091,2.091,0,0,1,.756.5,2.126,2.126,0,0,1,.5.738,2.363,2.363,0,0,1,.18.918,2.827,2.827,0,0,1-.306,1.242,1.937,1.937,0,0,1-1.044.918,2.339,2.339,0,0,1,1.26.828,2.6,2.6,0,0,1-.4,3.42A3.645,3.645,0,0,1,87.413,71H82.679V61.586Zm-.864,3.978a1.306,1.306,0,0,0,.936-.324,1.277,1.277,0,0,0,.36-.972,1.367,1.367,0,0,0-.288-.882,1.106,1.106,0,0,0-.918-.36H84.623v2.538Zm.288,4a1.271,1.271,0,0,0,.99-.4,1.4,1.4,0,0,0,.378-.972,1.368,1.368,0,0,0-.36-.954,1.215,1.215,0,0,0-.972-.4H84.623V69.56Zm4.054-.216a2.154,2.154,0,0,0,.9-.234,1.666,1.666,0,0,0,.612-.756,6.027,6.027,0,0,0,.414-1.494q.18-.954.342-2.5l.306-2.772h6.21V71H98.11V63.206H95.626l-.234,1.728a30.284,30.284,0,0,1-.54,2.988,6.267,6.267,0,0,1-.738,1.872,2.457,2.457,0,0,1-1.08.972,4.108,4.108,0,0,1-1.548.324Zm12.933-1.962a2.892,2.892,0,0,1-1.314-.972,2.818,2.818,0,0,1-.5-1.746,3.029,3.029,0,0,1,.252-1.26,2.847,2.847,0,0,1,.684-.972,2.89,2.89,0,0,1,1.026-.63,3.648,3.648,0,0,1,1.314-.234h3.888V71h-1.962V67.706h-1.53L104.059,71h-2.178Zm3.384-1.278v-2.9h-1.746a1.574,1.574,0,0,0-1.008.378,1.329,1.329,0,0,0-.468,1.1,1.365,1.365,0,0,0,.414,1.062,1.527,1.527,0,0,0,1.008.36Zm8.812,5.076a5.111,5.111,0,0,1-2-.378,4.87,4.87,0,0,1-1.548-1.062,4.952,4.952,0,0,1-.99-1.548,5.294,5.294,0,0,1,0-3.744,4.9,4.9,0,0,1,.99-1.566,4.511,4.511,0,0,1,1.548-1.062,4.954,4.954,0,0,1,2.016-.4,4.782,4.782,0,0,1,1.98.4,4.661,4.661,0,0,1,1.53,1.062,4.287,4.287,0,0,1,.954,1.53,4.895,4.895,0,0,1,.342,1.818q0,.216-.018.414-.018.18-.036.306h-7.542a3.051,3.051,0,0,0,.918,2.016,2.967,2.967,0,0,0,.882.558,2.831,2.831,0,0,0,1.044.2,3.33,3.33,0,0,0,.774-.09,3.223,3.223,0,0,0,.72-.288,2.732,2.732,0,0,0,.576-.468,2.142,2.142,0,0,0,.4-.594l1.692.486a3.961,3.961,0,0,1-1.62,1.746A5,5,0,0,1,116.417,71.18Zm2.862-5.6a3.049,3.049,0,0,0-.306-1.1,2.6,2.6,0,0,0-.612-.846,2.692,2.692,0,0,0-.882-.558,2.947,2.947,0,0,0-2.124,0,2.741,2.741,0,0,0-.864.558,2.6,2.6,0,0,0-.612.846,3.3,3.3,0,0,0-.288,1.1Zm8.8,1.512,3.006-5.508h2V71h-1.908V64.826l-2.574,4.7h-1.026l-2.592-4.7V71h-1.908V61.586h2.016Zm16.5,4.086a5.111,5.111,0,0,1-2-.378,4.87,4.87,0,0,1-1.548-1.062,4.952,4.952,0,0,1-.99-1.548,5.294,5.294,0,0,1,0-3.744,4.9,4.9,0,0,1,.99-1.566,4.511,4.511,0,0,1,1.548-1.062,4.954,4.954,0,0,1,2.016-.4,4.782,4.782,0,0,1,1.98.4,4.661,4.661,0,0,1,1.53,1.062,4.286,4.286,0,0,1,.954,1.53,4.894,4.894,0,0,1,.342,1.818q0,.216-.018.414-.018.18-.036.306H141.8a3.051,3.051,0,0,0,.918,2.016,2.967,2.967,0,0,0,.882.558,2.831,2.831,0,0,0,1.044.2,3.33,3.33,0,0,0,.774-.09,3.223,3.223,0,0,0,.72-.288,2.732,2.732,0,0,0,.576-.468,2.141,2.141,0,0,0,.4-.594l1.692.486a3.961,3.961,0,0,1-1.62,1.746A5,5,0,0,1,144.573,71.18Zm2.862-5.6a3.049,3.049,0,0,0-.306-1.1,2.6,2.6,0,0,0-.612-.846,2.692,2.692,0,0,0-.882-.558,2.947,2.947,0,0,0-2.124,0,2.741,2.741,0,0,0-.864.558,2.6,2.6,0,0,0-.612.846,3.3,3.3,0,0,0-.288,1.1Zm2.594,3.708h.522a1.422,1.422,0,0,0,.72-.324,2.069,2.069,0,0,0,.486-.828,7.363,7.363,0,0,0,.36-1.458q.162-.918.306-2.322l.306-2.772h6.21v7.7h1.188v4.536H158.4V71h-6.7v2.826h-1.674Zm6.966,0V63.206h-2.484l-.234,1.728a21.913,21.913,0,0,1-.522,2.754,4.646,4.646,0,0,1-.7,1.6Zm5.032,3.636a1.951,1.951,0,0,0,.594.324,1.922,1.922,0,0,0,.576.09,1.014,1.014,0,0,0,.828-.522,5.6,5.6,0,0,0,.72-1.818l-3.87-9.414h2.034l2.916,7.668,2.592-7.668h1.872L166.383,72.26a5.217,5.217,0,0,1-1.3,2.178,2.512,2.512,0,0,1-1.71.612,2.839,2.839,0,0,1-.756-.09,1.522,1.522,0,0,1-.594-.324ZM184.49,71h-1.944V63.3h-4.014V71h-1.944V61.586h7.9Zm6.826.18a4.954,4.954,0,0,1-2.016-.4,4.651,4.651,0,0,1-2.484-2.61,5.226,5.226,0,0,1-.342-1.872,5.083,5.083,0,0,1,.342-1.854,4.66,4.66,0,0,1,.972-1.566,4.776,4.776,0,0,1,3.528-1.458,4.782,4.782,0,0,1,1.98.4,4.661,4.661,0,0,1,1.53,1.062,4.521,4.521,0,0,1,.99,1.566,5.083,5.083,0,0,1,.342,1.854,5.226,5.226,0,0,1-.342,1.872,4.559,4.559,0,0,1-.99,1.548,4.661,4.661,0,0,1-1.53,1.062A4.782,4.782,0,0,1,191.316,71.18Zm-2.808-4.86a3.562,3.562,0,0,0,.216,1.26,3.244,3.244,0,0,0,.594,1.008,3,3,0,0,0,.882.666,2.7,2.7,0,0,0,1.116.234,2.575,2.575,0,0,0,1.1-.234,2.8,2.8,0,0,0,.9-.684,3.244,3.244,0,0,0,.594-1.008,3.561,3.561,0,0,0,.216-1.26,3.509,3.509,0,0,0-.216-1.242,3.2,3.2,0,0,0-.594-1.026,2.591,2.591,0,0,0-.9-.666,2.421,2.421,0,0,0-1.1-.252,2.5,2.5,0,0,0-1.1.252,2.866,2.866,0,0,0-.882.684,3.376,3.376,0,0,0-.828,2.268Zm-155,20.318h1.332l4.05-5.418h2.3l-4.572,6.174L41.61,94h-2.3L35.04,88.456H33.51V94H31.476V81.22H33.51ZM45.331,94.18a3.711,3.711,0,0,1-1.278-.216,3.332,3.332,0,0,1-1.008-.63,3.089,3.089,0,0,1-.666-.936,2.911,2.911,0,0,1-.234-1.17,2.522,2.522,0,0,1,.288-1.206,2.858,2.858,0,0,1,.81-.936,4.1,4.1,0,0,1,1.26-.612,5.751,5.751,0,0,1,1.62-.216,6.868,6.868,0,0,1,1.314.126,6.152,6.152,0,0,1,1.17.306v-.648a2.152,2.152,0,0,0-.594-1.62,2.315,2.315,0,0,0-1.71-.594,4.08,4.08,0,0,0-1.494.288,7.251,7.251,0,0,0-1.494.792l-.612-1.26a6.675,6.675,0,0,1,3.78-1.224,4.311,4.311,0,0,1,3.024.99,3.664,3.664,0,0,1,1.08,2.844v3.4q0,.63.522.648V94a5.065,5.065,0,0,1-.5.072q-.2.018-.4.018a1.308,1.308,0,0,1-.9-.288,1.253,1.253,0,0,1-.378-.738l-.054-.594a4.261,4.261,0,0,1-1.566,1.278A4.591,4.591,0,0,1,45.331,94.18Zm.54-1.458a3.6,3.6,0,0,0,1.35-.252,2.4,2.4,0,0,0,1.008-.738.913.913,0,0,0,.378-.684V89.806a5.942,5.942,0,0,0-1.08-.306,5.769,5.769,0,0,0-1.1-.108,3.027,3.027,0,0,0-1.746.468,1.389,1.389,0,0,0-.666,1.206,1.561,1.561,0,0,0,.522,1.188A1.92,1.92,0,0,0,45.871,92.722Zm6.812-7.146a4.175,4.175,0,0,1,1.35-.864,4.462,4.462,0,0,1,1.6-.288,3.873,3.873,0,0,1,1.152.162,2.651,2.651,0,0,1,.918.468,1.93,1.93,0,0,1,.612.738,2.185,2.185,0,0,1,.216.99A2.216,2.216,0,0,1,58.1,88.15a1.686,1.686,0,0,1-1.17.666,2.485,2.485,0,0,1,1.584.828,2.421,2.421,0,0,1,.558,1.638,2.619,2.619,0,0,1-.27,1.188,2.778,2.778,0,0,1-.72.918,3.536,3.536,0,0,1-1.116.594,4.849,4.849,0,0,1-1.422.2,3.836,3.836,0,0,1-3.15-1.368l.99-1.314a2.435,2.435,0,0,0,2.088,1.008,1.963,1.963,0,0,0,1.242-.342,1.258,1.258,0,0,0,.45-1.044q0-1.566-2.25-1.566h-.666v-1.3h.666a2.228,2.228,0,0,0,1.35-.36,1.13,1.13,0,0,0,.486-.954.891.891,0,0,0-.36-.756,1.408,1.408,0,0,0-.936-.288,2.813,2.813,0,0,0-1.872.792ZM63.5,94.18a3.711,3.711,0,0,1-1.278-.216,3.332,3.332,0,0,1-1.008-.63,3.089,3.089,0,0,1-.666-.936,2.911,2.911,0,0,1-.234-1.17,2.522,2.522,0,0,1,.288-1.206,2.858,2.858,0,0,1,.81-.936,4.1,4.1,0,0,1,1.26-.612,5.751,5.751,0,0,1,1.62-.216,6.868,6.868,0,0,1,1.314.126,6.152,6.152,0,0,1,1.17.306v-.648a2.152,2.152,0,0,0-.594-1.62,2.315,2.315,0,0,0-1.71-.594,4.08,4.08,0,0,0-1.494.288,7.251,7.251,0,0,0-1.494.792l-.612-1.26a6.675,6.675,0,0,1,3.78-1.224,4.311,4.311,0,0,1,3.024.99,3.664,3.664,0,0,1,1.08,2.844v3.4q0,.63.522.648V94a5.065,5.065,0,0,1-.5.072q-.2.018-.4.018a1.308,1.308,0,0,1-.9-.288,1.253,1.253,0,0,1-.378-.738l-.054-.594a4.261,4.261,0,0,1-1.566,1.278A4.591,4.591,0,0,1,63.5,94.18Zm.54-1.458a3.6,3.6,0,0,0,1.35-.252,2.4,2.4,0,0,0,1.008-.738.913.913,0,0,0,.378-.684V89.806a5.942,5.942,0,0,0-1.08-.306,5.77,5.77,0,0,0-1.1-.108,3.027,3.027,0,0,0-1.746.468,1.389,1.389,0,0,0-.666,1.206,1.561,1.561,0,0,0,.522,1.188A1.92,1.92,0,0,0,64.038,92.722Zm9.3-4.392h4.284V84.586h1.944V94H77.617V90H73.333v4H71.389V84.586h1.944Zm10.8,2.862,4.824-6.606h1.512V94H88.522V87.538L83.788,94h-1.6V84.586h1.944Z" fill="#2f4152"/>
    </g>
    <g id="Frame_267" data-name="Frame 267" transform="translate(378 324)">
      <rect id="Прямоугольник_1" data-name="Прямоугольник 1" width="68" height="68" rx="34" fill="#b24d97"/>
      <path id="Контур_3" data-name="Контур 3" d="M22.92,48a19.626,19.626,0,0,1,.336-3.744,10.254,10.254,0,0,1,1.2-3.216,11.5,11.5,0,0,1,2.352-2.88,19.114,19.114,0,0,1,3.84-2.688q1.68-.912,3.168-1.68A29.778,29.778,0,0,0,36.408,32.3a8.319,8.319,0,0,0,1.824-1.584,3.12,3.12,0,0,0,.672-1.968,3.592,3.592,0,0,0-1.344-2.736,5.259,5.259,0,0,0-3.792-1.248,7.259,7.259,0,0,0-2.4.384,8.487,8.487,0,0,0-1.968.912,8.226,8.226,0,0,0-1.536,1.2q-.672.672-1.2,1.3L23.3,24.672a11.531,11.531,0,0,1,1.488-1.3,15.177,15.177,0,0,1,2.5-1.536,17.937,17.937,0,0,1,3.36-1.2,14.987,14.987,0,0,1,4.08-.528,12.714,12.714,0,0,1,4.128.624,8.746,8.746,0,0,1,3.12,1.632,6.919,6.919,0,0,1,1.968,2.544,7.286,7.286,0,0,1,.672,3.12A6.8,6.8,0,0,1,43.9,31.2a9.8,9.8,0,0,1-1.776,2.448,12.559,12.559,0,0,1-2.3,1.824q-1.248.72-2.3,1.248-1.008.48-2.3,1.152A17.864,17.864,0,0,0,32.76,39.36a14.858,14.858,0,0,0-2.16,1.776,5.389,5.389,0,0,0-1.344,2.112H45.144V48Z" fill="#fff"/>
    </g>
  </g>
</svg>
