<svg width="17" height="10" viewBox="0 0 17 10" fill="none" xmlns="http://www.w3.org/2000/svg">
<path d="M2.60073 0.4435L8.49339 6.33616L14.386 0.4435C14.5267 0.302893 14.6936 0.191358 14.8773 0.115263C15.061 0.039167 15.2579 1.48153e-09 15.4567 0C15.6556 -1.48153e-09 15.8525 0.039167 16.0362 0.115263C16.2199 0.191358 16.3868 0.302893 16.5275 0.4435C16.6681 0.584106 16.7796 0.751031 16.8557 0.934742C16.9318 1.11845 16.9709 1.31535 16.9709 1.5142C16.9709 1.71305 16.9318 1.90995 16.8557 2.09366C16.7796 2.27737 16.6681 2.4443 16.5275 2.5849L9.5565 9.55586C9.416 9.69665 9.2491 9.80835 9.06538 9.88456C8.88165 9.96077 8.6847 10 8.4858 10C8.28689 10 8.08994 9.96077 7.90621 9.88456C7.72249 9.80835 7.5556 9.69665 7.41509 9.55586L0.444142 2.5849C0.303351 2.4444 0.191652 2.27751 0.11544 2.09378C0.0392283 1.91006 0 1.71311 0 1.5142C0 1.3153 0.0392283 1.11834 0.11544 0.934619C0.191652 0.750893 0.303351 0.584003 0.444142 0.4435C1.03645 -0.133616 2.00843 -0.148804 2.60073 0.4435Z" fill="white"/>
</svg>
